<?xml version="1.0" encoding="UTF-8"?>
<svg id="Livello_2" data-name="Livello 2" xmlns="http://www.w3.org/2000/svg" viewBox="0 0 1912.53 145.31">
  <defs>
    <style>
      .cls-1 {
        fill: #fff;
      }
    </style>
  </defs>
  <g id="SLIDE_C1" data-name="SLIDE C1">
    <path class="cls-1" d="M585.98,143.41l5.45-25.02c8.59-2.44,10.96-4.94,13.42-13.22,6.24-20.98,9.43-44.52,14.59-65.91-.27-5.57-3.17-9.81-9.2-9.69-.9-.89,4.38-22.7,5.29-24.54,1.33-2.69,3.24-3.11,6-3.35,14.48-1.3,41.76-1.13,56.38,0,39.89,3.1,41.44,49.26,12.89,67.82,5.79,8.02,7.19,16.44,5.25,26.07-1.46,7.26-7.77,18.39,3.35,21.52l-6.34,26.23c-4.75-.12-9.68.44-14.43.11-39.28-2.72-16.83-41-14.59-64.52-.73-4.86-11.26-4.02-15.13-3.68-2.81.26-4.22.34-5.45,3.13-1.56,3.58-6.31,24.86-6.64,29.05-.62,7.99,4.3,10.59,11.73,10.45l-6.64,25.55h-55.92v.02ZM648.55,56.69h18.38c.78,0,2.86-1.93,3.33-2.9,1.63-3.39,3.87-16.24,3.27-19.9-1.29-7.83-15.99-9.07-18.89-3.31l-6.09,26.11h0Z"/>
    <path class="cls-1" d="M190.21,143.41l5.57-25.45c6.67-.19,10.97-4.8,12.99-10.76,7-20.7,9.36-46.56,15.14-67.92-.31-5.63-3.31-10.03-9.45-9.68,1.59-6.84,2.55-14.77,4.59-21.4,1.01-3.29,1.87-6.41,5.96-6.48,22.23,2.72,62.83-6.96,80.2,8.91,16.57,15.15,9.75,49.1-10.17,58.48l.02,1.11c5.3,5.37,6.98,14.31,6.15,21.63-1,8.9-9.48,20.35,2.46,25.7l-6.39,25.77c-11.24,0-26.5,1.96-33.87-8.47-9.83-13.89,4.51-40.33,5.05-56.04.03-5.43-17.95-3.87-19.37-2.55-.48.44-1.09,2.15-1.35,2.9-1.75,5.01-6.6,25.07-6.69,29.84-.14,7.01,5.69,8.89,11.76,8.87l-6.65,25.54h-55.93ZM253.56,56.69h17.6c.29,0,2.39-1.48,2.75-1.91,2.39-2.79,4.4-16.98,3.84-20.88-1.17-8.11-15.97-8.69-18.56-3.76-1.46,2.79-4.87,18.63-5.44,22.49-.2,1.35-.29,2.69-.2,4.06h0Z"/>
    <path class="cls-1" d="M1671.62,143.41l5.45-25.02c7.17-2.21,10.6-4.06,12.95-11.36,5.13-15.99,11.68-45.09,14.25-61.76,1.1-7.14.97-15.57-8.39-15.69-.9-.89,4.38-22.7,5.29-24.54,1.33-2.69,3.24-3.11,6-3.35,14.48-1.3,41.76-1.13,56.38,0,4.12.32,10.04,1.76,13.87,3.31,27.28,11.1,21.64,51.64-.94,64.53,3.38,5.87,6.21,11.53,6.28,18.51.1,9.21-10.67,25.11,2.29,29.05l-6.34,26.23c-4.94-.15-10.33.47-15.2.11-38.38-2.84-15.74-41.63-14-64.34-.63-5.2-10.74-4.24-14.95-3.86-2.81.26-4.23.34-5.45,3.13-1.65,3.78-6.3,24.67-6.64,29.05-.62,7.99,4.3,10.59,11.73,10.45l-6.65,25.55h-55.93,0ZM1734.19,56.69h18.38c.78,0,2.86-1.93,3.33-2.9,1.53-3.18,3.83-16.45,3.27-19.9-1.21-7.4-15.41-9.06-18.63-3.82-3.34,5.42-3.75,20.07-6.35,26.62h0Z"/>
    <path class="cls-1" d="M302.84,143.41l5.45-25.02c8.59-2.44,10.96-4.94,13.42-13.22,6.23-20.96,9.4-44.54,14.59-65.91-.27-5.57-3.17-9.81-9.2-9.69-.9-.89,4.38-22.7,5.29-24.54,1.33-2.69,3.24-3.11,6-3.35,14.48-1.3,41.76-1.13,56.38,0,39.88,3.1,41.39,49.2,12.93,67.85,5.55,8.35,7.18,16.2,5.21,26.04-1.45,7.26-7.79,18.38,3.35,21.52l-6.34,26.23c-4.94-.15-10.33.47-15.2.11-38.24-2.83-15.93-41.83-13.81-64.52-.73-4.86-11.26-4.02-15.13-3.68-2.81.26-4.23.34-5.45,3.13-1.65,3.78-6.3,24.67-6.64,29.05-.62,7.99,4.3,10.59,11.73,10.45l-6.65,25.54h-55.92,0ZM365.4,56.69h18.38c.77,0,2.86-1.93,3.33-2.9,1.53-3.18,3.83-16.45,3.27-19.9-1.21-7.4-15.41-9.06-18.63-3.82s-3.75,20.07-6.35,26.62h0Z"/>
    <path class="cls-1" d="M876.16,142.63l5.09-24c7.29-2.43,10.66-4.45,13.01-11.89,6.53-20.65,9.03-44.82,14.79-65.91.56-5.78-3.54-10.8-9.43-11.25,1.73-4.77,4.02-24.81,7.5-27.01,1.27-.8,2.39-.76,3.79-.89,12.97-1.18,38.66-1.11,51.69,0,25.81,2.22,38.55,28.81,34.55,52.06-2.86,16.61-9.69,48.33-15.61,63.52-3.88,9.97-15.61,25.36-27.57,25.36h-77.83ZM925.44,116.3h18.38c3.94,0,7.34-7.11,8.43-10.24,6.46-18.49,8.38-41.52,13.88-60.58.77-13.16-8.37-16.13-20-15.18l-20.7,85.99Z"/>
    <path class="cls-1" d="M608.66,1.72l-10.95,48.78h-21.12c4.36-13.99-4.34-25.59-19.73-20.69-5.93,1.89-8.09,6.46-9.78,12-1.69,5.54-7.62,25.02,3.91,22.46,5.72-1.27,5.71-9.27,6.82-13.78h11.73l-10.16,43.35h-10.95c.19-4.8,4.41-15.47-3.59-16.25-5.41-.53-6.68,4.33-7.91,8.35-3.19,10.48-7.82,27.59,6.37,31.95,17.28,5.31,21.61-10.94,23.12-24.05h21.9l-10.95,49.55h-98.55l5.05-24.81c.67-.92,4.58-.87,6.34-1.47,8.53-2.9,8.76-9.66,10.77-17.22,4.07-15.32,11.33-41.1,12.97-56.07.84-7.74-.6-13.34-9.3-14.25,1.96-3.84,4.82-27.86,9-27.86h95.03l-.02.02Z"/>
    <path class="cls-1" d="M826.1,1.72l-10.95,48.78h-20.34c6.83-23.14-23.4-31.19-30.12-8.52-1.68,5.67-7.07,23.16,3.14,22.53,6.32-.39,7.03-9.22,7.43-14h11.73l-9.39,43.35h-11.73c.8-4.5,4.21-15.11-2.78-16.27-4.88-.81-6.43,2.37-7.79,6.2-1.47,4.18-4.37,16.33-4.37,20.52.02,11.92,14.85,18.38,24.58,11.88,7.11-4.74,6.16-15.58,9.52-22.33h21.51l-12.12,49.55h-95.82l5.87-24.77c10.59-2.72,11.6-8.6,14.08-17.8,5.33-19.79,8.73-40.22,13.62-60.13.03-6.47-3.26-9.99-9.38-11.55-.17-1.19,4.35-20.52,5.15-22.77.5-1.42,2.35-4.65,3.9-4.65h94.25,0Z"/>
    <path class="cls-1" d="M1694.3,1.72l-10.99,48.74-20.31.04c2-10.59-.98-21.7-13.69-21.72-9.61-.02-13.96,4.41-16.6,13.04-1.06,3.49-3.91,15.95-3,18.79,1.57,4.93,7.6,5.04,10.63,1.14,2.22-2.86,2.32-7.75,3.11-11.25h11.73l-10.16,43.35h-10.95c.52-4.87,4.45-15.46-3.59-16.25-6.52-.64-7.14,6.43-8.39,10.97-2.76,10.13-6.8,24.41,6.28,29.12,17.23,6.2,22.62-10.55,23.69-23.83h22.68l-11.73,49.55h-96.21l5.61-25.41c9.04-.82,11.28-6.62,13.41-14.2,5.53-19.65,8.64-40.82,13.81-60.65.63-8.02-.95-12.27-9.36-13.91,3.13-5.56,3.43-21.47,7-25.58.38-.44,2.47-1.91,2.76-1.91h94.25l-.02-.02Z"/>
    <path class="cls-1" d="M1110.03,1.72l-10.99,48.74-20.31.04c2-10.59-.98-21.69-13.69-21.72-6.86-.02-11.82,2.39-14.89,8.53-1.85,3.7-5.8,19.89-4.71,23.3,1.57,4.93,7.6,5.04,10.63,1.14,2.22-2.86,2.32-7.75,3.11-11.25h11.73l-10.16,43.35h-10.95c.52-4.87,4.45-15.46-3.59-16.25-6.52-.64-7.14,6.43-8.39,10.97-2.76,10.13-6.8,24.41,6.28,29.12,17.23,6.2,22.62-10.55,23.69-23.83h22.68l-11.73,49.55h-96.2l5.57-25.45c9.1-.69,11.29-6.62,13.46-14.17,5.62-19.58,8.58-40.86,13.81-60.65.56-7.22-.59-12.16-8.5-13.63-.77-1.09,4.65-24.14,6.14-25.86.37-.44,2.47-1.91,2.76-1.91h94.25l-.02-.02Z"/>
    <path class="cls-1" d="M1460.43,142.63l14.97-53.31,21.02.27c3.3,7.77,2.95,17.49,7.66,24.93,7.51,11.88,27.39,14.13,31.85-1.3,5.27-18.28-19.67-26.23-31.49-34.68-9.52-6.81-17.61-17.37-18.88-29.31-4.27-40.11,40.1-62.69,72.25-40.54,1-3.12,3.1-7.75,7.05-7.75h19.95l-11.06,49.45-21.8.11c-.66-9.85-.71-24.02-11.89-28.11-17.37-6.34-29.91,11.63-14.71,24.63,17.74,15.16,50.42,18.73,48.49,51.08-2.4,40.26-51.74,59.58-84.06,38.33l-1.18,6.2h-28.16,0Z"/>
    <path class="cls-1" d="M155.63.4c28.51-2.69,52.74,20.22,48.64,48.93-5.4,21.37-8.62,44.76-14.91,65.76-13.84,46.19-84.09,36.3-87.43-8.55-.87-11.66,11.06-60.71,15.13-73.86C122.31,15.69,137.41,2.12,155.62.4h0ZM159.53,30.54c-4.88.47-8.65,4-10.38,8.37-3.11,19.7-11.78,41.52-14.29,60.96-2.14,16.59,13.72,22.97,22.88,9.49l15.19-65.54c.02-7.35-5.65-14.02-13.4-13.26h0Z"/>
    <path class="cls-1" d="M1289.14,143.41l5.44-25.04c5.44-1.13,9.21-2.45,12.44-7.2,15.59-32.89,26.21-70.6,42.21-102.99,2.18-4.42,2.87-5.97,8.3-6.49,7.04-.67,15.16.57,22.32.05-.04,1.32.05,2.61.36,3.9,6.44,26.67,12.82,53.57,20.05,80.04,1.82,6.65,6.07,26.63,10.94,30.21,2.35,1.73,4.87,2.29,7.77,1.99l-6.65,25.55h-54.75l-.88-1.6,5.87-24.28c1.35-1.96,10.21,3.04,9.47-7.79-.2-2.91-.36-5.47-3.47-5.86-6.21-.77-25.11-.74-31.37,0-2.72.32-3.38,2.1-3.9,4.65-2.01,9.67,2.53,8.79,10.6,8.56l-5.48,26.32h-49.28ZM1366.57,87.66l-9.4-36.39-15.63,36.39h25.03Z"/>
    <path class="cls-1" d="M1783.47,143.4l5.39-25.09c4.88-1.23,9.8-2.52,12.25-7.39l43.49-105.6c.59-.89,1.34-1.84,2.25-2.42,4.66-2.98,20.3-.32,26.46-1.09,6.86,26.3,12.66,52.93,19.72,79.2,2.33,8.69,4.55,19.82,7.73,27.97,2.08,5.32,5.45,9.42,11.77,8.87l-5.48,25.55h-56.32l5.51-26.29c11.17.86,11.41-4.03,8.5-13.12l-35.99.38c-4.39,10.08-1.99,14.03,9.47,12.71l-6.64,26.32h-48.11ZM1860.9,87.66l-10.56-36.4-14.47,36.4h25.03,0Z"/>
    <path class="cls-1" d="M113.56,1.72l-13.69,56.52h-30.89c-.2-4.8,2.96-10.59,2.97-15.09.04-14.81-20.56-20.05-26.21-2.88-6.35,19.32-8.44,42.04-14.3,61.72-2.32,14.52,17.53,22.21,24.55,8.82,2.6-4.97,4.58-27.02,11.03-27.02h27.77c-3.53,10.87-4.57,23.35-8.21,34.07C71.56,162.17-5.86,151.12.35,96.78c1.83-16.03,9.54-46.56,14.25-62.55C23.24,4.9,56.54-10.02,82.66,8.67l5.47-6.95h25.42Z"/>
    <path class="cls-1" d="M1176.51,1.72l-7.14,27.77c-6.41.03-12.85,2.22-15.13,8.64l-16.1,70.03c-1.53,12.01,18.62,12.49,25.64,8.31,7.02-4.18,6.9-20.63,10.78-27.27h21.51l-12.51,54.2h-96.21l5.45-25.02c5.85-1.83,9.89-3.81,12.14-9.85,3.83-19.79,10.57-39.84,14.1-59.59,1.49-8.33,3.64-17.4-7.35-19.45-.71-1,4.15-21.28,5.14-23.76.4-1,2.14-4.02,2.97-4.02h56.71Z"/>
    <path class="cls-1" d="M1277.41,1.72l-6.63,27.12c-1.36,1.75-11.71-.67-15.65,9.29l-16.12,70.82c-.58,11.28,18.89,11.47,25.66,7.53,6.99-4.07,6.93-20.7,10.78-27.27h21.51l-12.51,53.42h-96.2l5.45-24.24c5.98-1.85,9.77-3.77,12.14-9.84,3.87-20.66,11.51-42.08,14.91-62.66,1.4-8.48,1.36-14.2-8.3-16.74,2.13-7.12,2.59-16.68,5.29-23.4.4-1,2.14-4.02,2.97-4.02h56.71Z"/>
    <path class="cls-1" d="M504.63,1.72l-6.63,27.12c-11.68,1.8-14,4.02-17.1,14.82-5.85,20.4-9.08,42.39-14.59,62.97-.67,8.17,2.64,11.58,10.94,11.22l-6.65,25.54h-55.92l6.24-25.17c2.97-.65,5.35-1.23,7.77-3.14,5.59-4.41,8.05-20.88,9.84-28.19,3.94-16.03,7.38-32.22,10.61-48.41-.02-6.23-4.53-8.87-10.24-9.3,1.81-3.84,5-27.48,9.01-27.48h56.71v.02Z"/>
  </g>
</svg>