<?xml version="1.0" encoding="UTF-8"?>
<svg id="Livello_2" data-name="Livello 2" xmlns="http://www.w3.org/2000/svg" viewBox="0 0 169 30.09">
  <defs>
    <style>
      .cls-1 {
        fill: #fff;
      }
    </style>
  </defs>
  <g id="SLIDE_C1" data-name="SLIDE C1">
    <path class="cls-1" d="M154.48.6v25.56l2.34.61.29,2.67h-11.21l.08-3.23,1.95-.4V5.49c-.17-1.47-2.99-1.52-2.03-4.22l8.58-.66Z"/>
    <path class="cls-1" d="M43.66.6v23.92l2.54,1.07.09,3.18-8.56,1.32V5.51c-2.16-1.68-4.65-.41-3.96-4.26l9.9-.66h-.01Z"/>
    <path class="cls-1" d="M10.03,3.22v26.21H.14c-.69-3.49,1.34-2.61,2.63-3.61,1.3-1.01.66-16.68.28-19.41L.22,5.75l-.08-2.54h9.89Z"/>
    <path class="cls-1" d="M61.48,12.39h-2.65c.11-.95-.3-2.34.15-3.14.25-.45,7.73-6.47,8.79-4.1l.91,20.05c1.42.97,4.09-.79,4.02,1.28-.17,5.25-11.22,3.6-11.22,0v-14.08h0Z"/>
    <path class="cls-1" d="M36.38,10.4c-5.89.46-6.71,10.05-4.24,13.77,1.1,1.64,4.55,2.3,4.26,3.63-10.13,7.19-15.9-7.82-10.18-16,3.43-4.9,12.55-4.8,10.15-1.39Z"/>
    <path class="cls-1" d="M104.35,7.8v18.35l3.02.61.29,2.66h-11.87c-.97-3.69,2.44-2.49,2.69-4.22l-.12-11.75-2.46-1.15-.08-3.18,8.56-1.32h-.03Z"/>
    <path class="cls-1" d="M56.2,7.8v18.35h2.65v3.28h-11.21c-.97-3.69,2.44-2.49,2.69-4.22l-.12-11.75-2.46-1.15-.08-3.18,8.56-1.32h-.03Z"/>
    <path class="cls-1" d="M121.49,7.8v18.35h2.65v3.28h-11.21c-.97-3.69,2.44-2.49,2.69-4.22l-.12-11.75-2.46-1.15-.08-3.18,8.56-1.32h-.03Z"/>
    <path class="cls-1" d="M166.35,7.8v18.35h2.65v3.28h-11.21c-.97-3.69,2.43-2.49,2.69-4.22l-.12-11.75-2.46-1.15-.08-3.18,8.56-1.32h-.03Z"/>
    <path class="cls-1" d="M142.75,26.03c.34.57,2.55.48,1.83,2.74-14.51,5.47-5.52-11.67-9.57-17.04-1.12-1.48-3.08-.9-2.3-3.92,14.53-2.26,7.72,14.38,10.05,18.21Z"/>
    <path class="cls-1" d="M83.9,7.81c.73,2.21-1.3,3.04-1.8,4.43-1.03,2.89-1.19,7.8-.67,10.81.38,2.25,4.54,6.76.82,6.39-11.52-1.11-10.72-21.56,1.65-21.64Z"/>
    <path class="cls-1" d="M85.22,29.43c.09-2.94,1.72-4.35,2-7.51.17-1.93.24-6.04-.05-7.85-.36-2.16-3.08-3.85-1.6-6.26,12.07,1.23,12.06,21.51-.33,21.63h-.01Z"/>
    <path class="cls-1" d="M134.6,26.23c2.45,4.1-11.78,5.73-8.86-3.39,1.12-3.51,6.11-4.32,8.94-5.86.82,3.07-2.69,3.61-2.7,6.22,0,2.78,2.34,2.57,2.62,3.03Z"/>
    <path class="cls-1" d="M11.35,29.43l.09-2.53,5.85-1.07c1.02-.6,1.43-3.49,2.29-4.28,4.77-4.28,2.2,6.01,2.32,7.88h-10.55Z"/>
    <path class="cls-1" d="M21.9,3.22v7.21c-.54-.01-1.11.07-1.67.03-3.02-.2-1.73-1.55-2.65-3.28-1.1-2.09-4.21-1.19-6.23-1.34v-2.62h10.55Z"/>
    <path class="cls-1" d="M17.28,11.08v9.82l-2.55-.08-.83-3.11-2.57-.45.03-2.91,2.54-.08.83-3.11,2.55-.08Z"/>
    <path class="cls-1" d="M52.72.04c4.34-.66,5.64,6.19.93,6.76-4.71.57-5.19-6.12-.93-6.76Z"/>
    <path class="cls-1" d="M118.01.04c4.34-.66,5.64,6.19.93,6.76-4.71.57-5.19-6.12-.93-6.76Z"/>
    <path class="cls-1" d="M162.87.04c4.34-.66,5.64,6.19.93,6.76-4.71.57-5.19-6.12-.93-6.76Z"/>
    <path class="cls-1" d="M132.04,8.46l-.29,5.94-5.65.61c-.44-3.63,2.05-7.03,5.93-6.55h.01Z"/>
    <path class="cls-1" d="M111.61,7.8v5.9h-5.94c-.25-3.55,2.18-6.58,5.94-5.9Z"/>
    <path class="cls-1" d="M72.7,8.46h-3.97v3.94h3.97v-3.94Z"/>
  </g>
</svg>