<?xml version="1.0" encoding="UTF-8"?>
<svg id="Livello_2" data-name="Livello 2" xmlns="http://www.w3.org/2000/svg" viewBox="0 0 51.6 49.58">
  <defs>
    <style>
      .cls-1 {
        fill: #fff;
      }
    </style>
  </defs>
  <g id="SLIDE_C1" data-name="SLIDE C1">
    <path class="cls-1" d="M0,20.13C0,9.01,9.02,0,20.15,0h10.99c11.3,0,20.46,9.16,20.46,20.46,0,7.45-4.04,14.3-10.56,17.89l-20.27,11.23v-9.29h-.17C9.29,40.55,0,31.46,0,20.13ZM20.15,5.03c-8.35,0-15.11,6.77-15.11,15.1s6.97,15.3,15.45,15.13l.88-.03h4.43v5.79l12.8-7.07c4.91-2.72,7.96-7.88,7.96-13.49,0-8.53-6.91-15.43-15.43-15.43h-10.99Z"/>
  </g>
</svg>