<?xml version="1.0" encoding="UTF-8"?>
<svg id="Livello_2" data-name="Livello 2" xmlns="http://www.w3.org/2000/svg" viewBox="0 0 496.42 55.91">
  <defs>
    <style>
      .cls-1 {
        fill: #fff;
      }
    </style>
  </defs>
  <g id="SLIDE_C1" data-name="SLIDE C1">
    <path class="cls-1" d="M496.42,34.34h-19.27v-4.78h7.23c1.23-4.66-2.98-13.6-8.47-10.21-9,13.94,1.35,34.15,19.28,26.94,1.57,6.84-8.51,9.73-13.78,9.59-8.63-.21-16.95-6.7-18.43-15.26-4.81-27.96,31.12-36.78,33.42-6.29h.01Z"/>
    <path class="cls-1" d="M135.2,34.34h-19.27l1.17-4.21,7.25-.58-3.58-10.2c-9.09-5.6-12.22,17.99-3.6,25.1,4.37,3.6,11.7,4.13,16.8,1.85-.82,14.23-23.72,11.08-29.13.83-14.96-28.38,26.98-48.57,30.35-12.79h.01Z"/>
    <path class="cls-1" d="M24.42,4.45c2.09,4.61-6.02,5.1-6.02,6.58v38.85h6.02v4.78H.34v-4.78h6.02V11.03c0-1.47-8.11-1.97-6.02-6.58h24.08-.01Z"/>
    <path class="cls-1" d="M455.48,49.88l3.43.13.18,4.66h-19.27l.18-4.66,3.52-.78c-1.5-6.97,1.99-34.62-.72-38.8-.93-1.44-4.51-.82-2.98-5.95,5.01,1.3,12.09-2.41,15.66.59v44.83h0Z"/>
    <path class="cls-1" d="M88.23,9.23v35.26c0,4.07,7.76,4.66,10.84,4.19.74,3.92-2.17,5.38-5.49,5.89-22.12,3.41-15.26-15.79-16.11-30.26l-4.95-3.73c-.02-2.56,12.02-12.87,15.71-11.34Z"/>
    <path class="cls-1" d="M154.46,15.22v32.87l5.95,1.87.07,4.71h-21.68v-4.78h4.83l-.54-26.39-4.36-1.76.09-4.1,15.65-2.41Z"/>
    <path class="cls-1" d="M50.91,54.66l.18-4.66,3.52-.78c-1.19-6.36,2.09-21.24-1.77-25.75-1.83-2.15-6.42-1.74-5.53-4.05s5.44-4.19,7.84-4.28c15.52-.65,8.66,23.34,10.35,32.82l4.48,2.1.19,4.61h-19.27Z"/>
    <path class="cls-1" d="M378.42,54.66l.18-4.66,3.52-.78c-.99-5.26,1.67-23.41-1.56-26.56-1.58-1.54-6.85-.52-5.73-3.25.9-2.23,5.41-4.17,7.84-4.28,15.52-.65,8.66,23.34,10.35,32.82l4.48,2.1.19,4.61h-19.28Z"/>
    <path class="cls-1" d="M191.79,54.66c-1.79-5.16,3.04-4.56,3.64-7.73.75-3.91.49-20.55-1.87-23.31-1.7-2-10.88-3.45-1.46-7.49,17.57-7.54,14.21,24.64,14.13,33.76h4.84v4.78h-19.28Z"/>
    <path class="cls-1" d="M43.69,15.22v34.67l3.43.12.18,4.66h-19.26l-.08-4.11,4.36-1.77.4-24.46-4.48-2.1-.19-4.59,15.65-2.41Z"/>
    <path class="cls-1" d="M371.2,15.22v34.67l3.43.12.18,4.66h-19.26v-4.78s4.83,0,4.83,0l-.55-26.39-4.36-1.76.08-4.1,15.65-2.41Z"/>
    <path class="cls-1" d="M285.7,16.41l-21.08,37.04-11.43,1.21c-.27-1.73.08-3.1.68-4.71,3.66-10.05,15.71-22.74,20.04-33.29l11.79-.24h0Z"/>
    <path class="cls-1" d="M306.17,15.22v32.87l4.62,1.97.19,4.61h-19.26l.17-4.66,3.52-.78v-26.17l-3.52-.78-.1-4.57,14.37-2.47Z"/>
    <path class="cls-1" d="M183.36,15.22v32.87c0,.89,6.74,2.94,4.81,6.58h-19.27l.18-4.66,3.52-.78.04-31.5,10.71-2.51h0Z"/>
    <path class="cls-1" d="M249.55,49.94v3.46c-23.93,8.24-13.04-16.36-15.63-29.2-.92-4.55-6.55-2.99-4.79-8.99,21.19-.97,14.61,18.7,15.81,32.72l4.62,2h-.01Z"/>
    <path class="cls-1" d="M432.73,49.81l3.49.07-.02,3.54c-25.29,9.17-8.65-22.85-16.29-32.16-1.63-1.98-5.26-1.81-4.14-6.03,21.62-1.74,16.17,20.44,16.98,34.59h-.01Z"/>
    <path class="cls-1" d="M330.26,15.22c-.16,5.36-3.15,7.95-3.64,13.7-.72,8.45,1.04,16.53,4.87,23.96.55,3.87-5.59.93-7.3.06-14.96-7.61-12.15-35.79,6.08-37.71h-.01Z"/>
    <path class="cls-1" d="M336.29,54.65c2.56-10.51,5.44-18.97,1.82-29.9-1.13-3.41-4.57-5.66-4.23-9.53,21.96.75,24.01,36.37,2.41,39.43Z"/>
    <path class="cls-1" d="M418.15,33.15c-1.35,6.12-9.1,6.09-4.67,13.61,1.39,2.35,5.52,2.97,4.67,4.9-8.4,8.3-21.47-.34-15.51-10.61,1.48-2.56,14.01-9.25,15.51-7.89h0Z"/>
    <path class="cls-1" d="M230.31,33.15c-.42,4.31-4.57,4.14-4.92,8.94-.49,6.72,5.35,7.46,4.92,9.56-4.2,5.2-13.77,4.51-15.39-2.63-2.32-10.18,7.08-13.9,15.39-15.88h0Z"/>
    <path class="cls-1" d="M305.88,10.15c-2.86,2.82-9.7,2.15-10.53-2.75-2.36-13.96,18.71-5.32,10.53,2.75Z"/>
    <path class="cls-1" d="M286.92,40.33l-2.53,14.2-15.52.12c-.35-5.43,5.97-2.59,8.19-3.83,1.38-.76,5.79-13.45,9.87-10.51h-.01Z"/>
    <path class="cls-1" d="M268.84,16.41c1.05,4.25-5.12,2.58-6.95,3.85-1.83,1.27-2.62,11.03-8.7,9.28l1.19-13.14h14.46Z"/>
    <path class="cls-1" d="M225.5,16.41l-.52,10.84-9.15.56c-1.79-1.3-.62-1.5-.3-2.73,1.28-5.06,4.36-8.89,9.98-8.66h-.01Z"/>
    <path class="cls-1" d="M167.7,15.2v10.77h-9.64c-.62-6.7,2.2-12.03,9.64-10.76h0Z"/>
    <path class="cls-1" d="M412.13,16.41v11.96h-9.63c-.7-5.68,3.8-11.19,9.63-11.95h0Z"/>
    <path class="cls-1" d="M99.08,16.4h-7.24v7.18h7.24v-7.18Z"/>
  </g>
</svg>