<?xml version="1.0" encoding="UTF-8"?>
<svg id="Livello_2" data-name="Livello 2" xmlns="http://www.w3.org/2000/svg" viewBox="0 0 50.34 44.44">
  <defs>
    <style>
      .cls-1 {
        fill: #fff;
      }
    </style>
  </defs>
  <g id="SLIDE_C1" data-name="SLIDE C1">
    <path class="cls-1" d="M36.99,5.03c-3.08-.15-6.74,1.28-9.79,5.44l-2.03,2.74-2.03-2.74c-3.05-4.15-6.72-5.59-9.8-5.44-3.13.18-5.91,1.96-7.32,4.81-1.39,2.82-1.59,7,1.21,12.13,2.7,4.96,8.2,10.75,17.94,16.64,9.74-5.89,15.23-11.68,17.93-16.64,2.8-5.13,2.59-9.31,1.2-12.13-1.41-2.84-4.19-4.63-7.32-4.81ZM47.53,24.38c-3.4,6.24-10.07,12.89-21.09,19.3l-1.27.76-1.27-.76C12.88,37.27,6.21,30.63,2.81,24.38-.61,18.09-.74,12.15,1.52,7.6,3.75,3.09,8.18.27,13.1.02c4.15-.23,8.48,1.41,12.08,5.06C28.77,1.43,33.09-.21,37.24.02c4.92.25,9.35,3.07,11.58,7.58,2.26,4.56,2.13,10.5-1.29,16.79Z"/>
  </g>
</svg>