<?xml version="1.0" encoding="UTF-8"?>
<svg id="Livello_1" data-name="Livello 1" xmlns="http://www.w3.org/2000/svg" viewBox="0 0 421.02 54">
  <defs>
    <style>
      .cls-1 {
        fill: #f8f8f8;
        stroke-width: 0px;
      }
    </style>
  </defs>
  <path class="cls-1" d="m91.36,53.17V.8h36.43v8.45h-27.06v13.69h25.26v8.3h-25.26v21.91h-9.36l-.02.02Z"/>
  <path class="cls-1" d="m136.93,53.17V.8h25.49c3.25,0,6.15.74,8.7,2.21,2.55,1.47,4.55,3.5,5.99,6.06,1.44,2.56,2.17,5.53,2.17,8.86s-.7,6.06-2.09,8.6c-1.4,2.54-3.31,4.51-5.74,5.91-2.43,1.39-5.04,2.09-7.83,2.09h-5.1l.38-2.24,21.82,20.87h-11.99l-18.82-18.4h-3.6v18.4h-9.38v.02Zm25.19-26.92c1.46,0,2.79-.35,4.01-1.04,1.23-.7,2.17-1.7,2.85-3,.68-1.3,1.02-2.77,1.02-4.42s-.33-3.03-1.02-4.3c-.68-1.27-1.62-2.26-2.85-2.95-1.23-.7-2.57-1.04-4.01-1.04h-15.81v16.76h15.81Z"/>
  <path class="cls-1" d="m182.28,53.17L202.52.8h13.49l20.24,52.36h-10.12l-16.04-42.57h-1.65l-16.04,42.57h-10.12Zm12.44-11.66v-8.45h29.16v8.45h-29.16Z"/>
  <path class="cls-1" d="m264.66,54c-4.9,0-9.39-1.15-13.49-3.44-4.1-2.3-7.33-5.48-9.71-9.57-2.37-4.09-3.57-8.75-3.57-13.99s1.2-9.9,3.6-13.99c2.4-4.09,5.64-7.28,9.74-9.57,4.1-2.29,8.62-3.44,13.57-3.44,4.14,0,7.93.8,11.35,2.39,3.43,1.59,6.31,3.74,8.66,6.44,2.35,2.7,4.02,5.66,5.02,8.9h-9.89c-1.4-2.7-3.43-4.85-6.11-6.47-2.67-1.62-5.69-2.44-9.03-2.44s-6.21.74-8.88,2.24c-2.67,1.5-4.79,3.63-6.37,6.39-1.58,2.77-2.37,5.95-2.37,9.54s.79,6.77,2.37,9.54,3.69,4.91,6.33,6.39c2.66,1.5,5.57,2.24,8.77,2.24s5.77-.61,8.13-1.83c2.37-1.23,4.26-2.8,5.66-4.75,1.4-1.95,2.12-3.98,2.17-6.13l.23-2.47,2.85,2.77h-17.54v-6.95h24.07v27.38h-7.19l-.74-6.36h-.46c-1.05,1.24-2.41,2.41-4.08,3.48-1.67,1.08-3.63,1.95-5.84,2.65-2.23.7-4.64,1.04-7.24,1.04Z"/>
  <path class="cls-1" d="m300.64,53.17V.8h14.99l14.61,38.68h1.65L346.51.8h14.92v52.36h-9.36V15.17h-1.65l-14.38,38.01h-9.97l-14.4-38.01h-1.65v38.01h-9.36v-.02Z"/>
  <path class="cls-1" d="m367.05,53.17L387.29.8h13.49l20.24,52.36h-10.12l-16.04-42.57h-1.65l-16.04,42.57h-10.12Zm12.44-11.66v-8.45h29.16v8.45h-29.16Z"/>
  <path class="cls-1" d="m17.19,36.03H0v17.16h17.19v-17.16Z"/>
  <path class="cls-1" d="m17.75,36.03l16.68,17.16h18.22v-17.16H17.75Z"/>
  <path class="cls-1" d="m52.65.64H0v17.66l17.19,17.16v-17.66h35.46V.64Z"/>
</svg>