<?xml version="1.0" encoding="utf-8"?>
<!-- Generator: Adobe Illustrator 28.0.0, SVG Export Plug-In . SVG Version: 6.00 Build 0)  -->
<svg version="1.1" id="Livello_1" xmlns="http://www.w3.org/2000/svg" xmlns:xlink="http://www.w3.org/1999/xlink" x="0px" y="0px"
	 viewBox="0 0 199 59" style="enable-background:new 0 0 199 59;" xml:space="preserve">
<style type="text/css">
	.st0{fill:#FFFFFF;}
</style>
<path class="st0" d="M0,0v59h40.6V0H0z M34.8,53.1H5.9V5.9h28.9V53.1z"/>
<path class="st0" d="M64.8,20.6L64.8,20.6c-3.3-5.3-6.6-9.9-9.9-14.6h-2.5v20.5h2.8V11.7h0c3.3,5.3,6.5,10,9.8,14.7h2.5V5.9h-2.8
	V20.6z M84.9,26.5L78.4,5.9h-2.9l-7,20.5h3l1.8-5.6h6.1l1.6,5.6H84.9z M74.2,18.3c0.8-2.7,1.6-5.2,2.3-8.4h0.1
	c0.8,3.2,1.5,5.7,2.3,8.4H74.2z M88.2,26.5h3.5V8.7H97V5.9H82.8v2.8h5.3L88.2,26.5L88.2,26.5z M101.5,5.9h-3.4v20.5h3.4V5.9z
	 M112.3,26.8c5.3,0,8.6-4.8,8.6-10.9c0-5.7-3.6-10.3-8.6-10.3c-5,0-8.6,4.6-8.6,10.3C103.7,22,107,26.8,112.3,26.8z M112.3,8.5
	c3.4,0,4.9,3.6,4.9,7.4c0,3.9-1.3,8-4.9,8c-3.6,0-4.9-4-4.9-8C107.4,12.1,108.8,8.5,112.3,8.5z M125.7,11.7L125.7,11.7
	c3.3,5.3,6.6,10,9.9,14.7h2.5V5.9h-2.8v14.6h-0.1c-3.2-5.3-6.5-9.9-9.8-14.6H123v20.5h2.8C125.7,26.5,125.7,11.7,125.7,11.7z
	 M143.8,20.9h6.1l1.6,5.6h3.9L149,5.9h-2.9l-7,20.5h3L143.8,20.9z M147.1,10L147.1,10c0.9,3.2,1.6,5.7,2.3,8.4h-4.7
	C145.5,15.6,146.4,13.1,147.1,10z M166.7,23.7h-6.9V5.9h-3.4v20.5h10.3L166.7,23.7L166.7,23.7z M62,49.9c-0.7,0.4-1.5,0.5-2.4,0.5
	c-3,0-5.9-2.9-5.9-7.7c0-4.7,2.5-7.6,6.2-7.6c1.3,0,2.8,0.5,3.7,1.1l1.1-2.4c-1.2-0.9-3-1.6-4.9-1.6c-6.1,0-9.8,4.9-9.8,10.5
	c0,6,3.8,10.7,9.7,10.7c2,0,3.9-0.5,5.8-1.3v-8.5H62C62,43.6,62,49.9,62,49.9z M72.1,43.6h5.7v-2.8h-5.7v-5.6h5.8v-2.8h-9.3V53h10.3
	v-2.8h-6.8V43.6z M88.6,32.1c-5,0-8.6,4.6-8.6,10.3c0,6.1,3.3,10.9,8.6,10.9c5.3,0,8.6-4.8,8.6-10.9C97.2,36.7,93.6,32.1,88.6,32.1z
	 M88.6,50.4c-3.6,0-4.9-4-4.9-8c0-3.8,1.4-7.4,4.9-7.4c3.4,0,4.9,3.6,4.9,7.4C93.5,46.4,92.2,50.4,88.6,50.4z M110.4,49.9
	c-0.7,0.4-1.5,0.5-2.4,0.5c-3,0-5.9-2.9-5.9-7.7c0-4.7,2.5-7.6,6.2-7.6c1.3,0,2.8,0.5,3.7,1.1l1.1-2.4c-1.2-0.9-3-1.6-4.9-1.6
	c-6.1,0-9.8,4.9-9.8,10.5c0,6,3.8,10.7,9.7,10.7c2,0,3.9-0.5,5.8-1.3v-8.5h-3.5C110.4,43.6,110.4,49.9,110.4,49.9z M128.8,38.4
	c0-4-2.4-5.9-6.3-5.9h-5.4V53h3.5v-7.7h1.6l3.3,7.7h4l-4.1-8.5C127.5,43.3,128.8,40.9,128.8,38.4z M122,42.6c-0.3,0-1.2,0.1-1.4,0.1
	v-7.5h1.5c2.1,0,3.2,1.2,3.2,3.3C125.3,41.3,123.6,42.6,122,42.6z M136.4,32.5l-7,20.5h3l1.8-5.6h6.1l1.6,5.6h3.9l-6.5-20.5H136.4z
	 M135.1,44.9c0.8-2.7,1.6-5.2,2.3-8.4h0.1c0.8,3.2,1.5,5.7,2.3,8.4H135.1z M171.2,40.4H164v-7.9h-3.4V53h3.4v-9.9h7.2V53h3.5V32.6
	h-3.5V40.4z M178,53h3.4V32.5H178V53z M193.6,50.4c-3.4,0-6.2-2.9-6.2-7.7c0-4.7,2.6-7.6,6.1-7.6c1.3,0,2.7,0.6,3.6,1.1l1.1-2.5
	c-1.2-0.8-2.9-1.6-4.7-1.6c-6.1,0-9.8,4.9-9.8,10.5c0,6,3.8,10.7,9.7,10.7c1.7,0,3.5-0.7,4.6-1.4l-1-2.6
	C196.1,50,194.9,50.4,193.6,50.4z M152.3,32.5h-5.4V53h3.5v-7.7h1.6c4.1,0,6.7-3.4,6.7-6.9C158.5,34.4,156.1,32.5,152.3,32.5z
	 M151.8,42.6c-0.3,0-1.2,0.1-1.4,0.1v-7.5h1.6c2,0,3.2,1.2,3.2,3.3C155.1,41.3,153.4,42.6,151.8,42.6z"/>
</svg>
