<?xml version="1.0" encoding="utf-8"?>
<!-- Generator: Adobe Illustrator 28.0.0, SVG Export Plug-In . SVG Version: 6.00 Build 0)  -->
<svg version="1.1" id="Livello_1" xmlns="http://www.w3.org/2000/svg" xmlns:xlink="http://www.w3.org/1999/xlink" x="0px" y="0px"
	 viewBox="0 0 2500 2500" style="enable-background:new 0 0 2500 2500;" xml:space="preserve">
<style type="text/css">
	.st0{display:none;fill-rule:evenodd;clip-rule:evenodd;fill:#FFFFFF;}
	.st1{fill-rule:evenodd;clip-rule:evenodd;fill:#FFFFFF;}
</style>
<path class="st0" d="M0,0h2500v2500H0V0z"/>
<path class="st1" d="M188.3,1041.7c6.8,0,15.8,2.3,24.9,11.3c9,6.8,9,20.3,6.8,31.7c-2.3,9-4.5,15.8-15.8,22.6
	c-11.3,6.8-22.6,6.8-22.6,6.8v43l20.3,18.1l-20.3,15.8v61.1c0,0,20.3-13.6,33.9-40.7l2.3-4.5c0,9,0,22.6-9.1,43
	c-4.5,13.6-15.8,27.1-31.7,36.2c-24.9,13.6-43,13.6-63.3,11.3c-24.9-6.8-47.5-20.3-61.1-43c-11.3-15.8-15.8-36.2-15.8-56.5
	c2.3-40.7,31.7-74.6,65.6-88.2c4.5-2.3,6.8-2.3,13.6-2.3c-2.3,0-6.8,2.3-11.3,6.8c-11.3,6.8-20.3,20.3-24.9,31.7l67.8-29.4v95
	l-54.3,27.1c6.8,9,24.9,22.6,40.7,22.6c29.4,4.5,45.2-9,45.2-9v-61.1l-22.6-15.8l22.6-18.1v-43c-11.4-2.4-22.8-5.5-33.9-9.1
	c-13.6-2.3-54.3-13.6-58.8-13.6c-6.8-2.3-15.8-2.3-20.3,2.3s-6.8,11.3-4.5,18.1c0,4.5,2.3,6.8,4.5,9c0,0-2.3,0-6.8-2.3
	c-6.8-4.5-13.6-13.6-13.6-24.9c0-13.6,4.5-27.1,18.1-36.2c9-6.8,20.3-11.3,33.9-9c20.3,2.3,47.5,13.6,72.4,20.3
	c9,2.3,15.8,2.3,22.6-2.3c2.3-2.3,9-6.8,4.5-13.6c-6.8-9-15.8-9-24.9-11.3C179.2,1039.4,181.5,1039.4,188.3,1041.7L188.3,1041.7z
	 M106.9,1229.4v-92.7l-27.1,13.6c0,0-6.8,15.8-6.8,38.4c2.3,18.1,11.3,38.4,18.1,47.5L106.9,1229.4L106.9,1229.4z M450.6,1132.1
	c0,0-22.6,13.6-36.2,22.6l-31.7,15.8v88.2l-13.6,9.1l2.3,2.3l11.3-9l38.4,33.9l67.8-52l-2.3-2.3l-36.2,29.4l-31.7-29.4v-9l61.1-45.2
	L450.6,1132.1L450.6,1132.1z M450.6,1204.5l-31.7,22.6v-74.6L450.6,1204.5L450.6,1204.5z M276.5,1328.9c9,0,22.6,2.3,43-6.8
	c20.3-11.3,29.4-31.7,29.4-54.3l2.3-31.7V1166l11.3-9v-2.3l-13.6,9l-29.4-31.7l-38.4,31.7V1053l-47.5,36.2c2.3,2.3,9.1,2.3,9.1,13.6
	v156l-20.3,13.6l2.3,2.3l9.1-6.8l27.1,24.9l43-33.9l-2.3-2.3l-9,9l-11.3-11.3v-85.9l11.3-11.3l20.3,22.6v74.6
	c0,20.3,0,45.2-11.3,56.5C290,1324.3,287.8,1324.3,276.5,1328.9L276.5,1328.9z M572.7,1319.8c-18.1-2.3-24.9-11.3-24.9-20.4
	c0-4.5,6.8-15.8,15.8-15.8c11.3-2.3,20.3,2.3,29.4,13.6l40.7-45.2h-2.3l-11.3,11.3c-9-11.3-24.9-20.3-40.7-22.6v-133.4L681.3,1295
	c0,0,2.3,2.3,6.8,2.3c2.3,0,2.3-2.3,2.3-2.3v-187.7c9.1-2.3,20.3-6.8,27.1-11.3c20.3-20.3,11.3-43,9.1-45.2
	c0,9.1-9.1,18.1-20.3,20.3c-15.8,0-27.1-13.6-27.1-13.6l-38.4,45.2l2.3,2.3l11.3-13.6c13.6,13.6,22.6,13.6,33.9,15.8v108.5
	l-76.9-137.9c-6.8-11.3-15.8-22.6-33.9-22.6s-31.7,15.8-33.9,31.6c-2.3,15.8,0,20.3,0,20.3s2.3-18.1,13.6-18.1s15.8,9,20.3,15.8
	v40.7c-11.3,0-38.4,0-38.4,29.4c0,9,6.8,20.3,11.3,24.9c6.8,4.5,13.6,4.5,13.6,4.5s-9.1-4.5-6.8-13.6c2.3-9,20.3-9,20.3-6.8v56.5
	c-9,0-33.9,0-47.5,22.6c-6.8,13.6-6.8,29.4,2.3,40.7C538.8,1313,550.1,1324.3,572.7,1319.8L572.7,1319.8z M789.8,1132.1
	c0,0-20.3,13.6-36.2,22.6l-31.7,15.8v88.2l-13.6,9.1l2.3,2.3l13.6-9l36.2,33.9l67.8-52l-2.3-2.3l-36.2,29.4l-29.4-29.4v-9l58.8-45.2
	L789.8,1132.1L789.8,1132.1z M789.8,1204.5l-29.4,22.6v-74.6L789.8,1204.5L789.8,1204.5z M882.5,1295l-33.9-27.1l-13.6,11.3
	l-2.3-2.3l15.8-11.3V1191c0-31.7-29.4-22.6-27.1-56.5c0-13.6,13.6-24.9,22.6-29.4c6.8-2.3,15.8-2.3,15.8-2.3s-13.6,6.8-11.3,20.3
	c4.5,18.1,36.2,18.1,38.4,43v85.9l22.6,18.1l6.8-4.5v-92.7l-13.6-11.3l31.7-29.4l29.4,27.1l-11.3,11.3v81.4l29.4,22.6l4.5-2.3v-99.5
	l-13.6-11.3l31.7-29.4l31.6,24.9l11.3-11.3l2.3,2.3l-27.1,24.9v79.2l-70.1,43l-36.2-27.1L882.5,1295L882.5,1295z M2307.2,1132.1
	c0,0-22.6,13.6-36.2,22.6l-31.7,15.8v88.2l-13.6,9.1l2.3,2.3l11.3-9l38.4,33.9l67.9-52l-2.3-2.3l-36.2,29.4l-31.7-29.4v-9l61.1-45.2
	L2307.2,1132.1z M2307.2,1204.5l-31.7,22.6v-74.6L2307.2,1204.5L2307.2,1204.5z M1995.1,1170.6h2.3l11.3-9.1l18.1,20.3v72.4
	l-9.1,6.8l29.4,33.9l29.4-29.4l-11.3-13.6V1166l6.8-6.8l20.3,24.9v72.4l-6.8,6.8l27.1,29.4l29.4-27.2l-11.3-11.3V1166l6.8-6.8
	l22.6,24.9v70.1l-6.8,6.8l29.4,33.9l40.7-38.5l-2.2-2.3l-9.1,9l-15.8-15.8V1166l13.6-11.3v-2.3l-15.8,11.3l-27.1-29.4l-38.4,29.4
	l-27.2-29.4l-38.4,29.4l-27.1-29.4L1995.1,1170.6L1995.1,1170.6z"/>
<path class="st1" d="M1913.7,1168.3l11.3-9.1l15.8,20.3v81.4l-11.3,11.3l2.3,2.2l11.3-11.3l27.2,31.7l38.4-33.9l-2.3-2.3l-11.3,9.1
	l-15.8-18.1v-81.4l13.6-11.3v-2.3l-13.6,11.3l-27.1-31.7L1913.7,1168.3L1913.7,1168.3z M1925,1098.2l27.1-24.9l24.9,24.9l-29.4,27.1
	L1925,1098.2L1925,1098.2z"/>
<path class="st1" d="M1884.3,1041.7c6.8,0,18.1,2.3,27.1,11.3c6.8,6.8,9.1,20.3,6.8,31.7c-2.3,9-6.8,15.8-15.8,22.6
	c-11.3,6.8-22.6,6.8-22.6,6.8v43l20.3,18.1l-20.3,15.8v61.1c0,0,20.3-13.6,33.9-40.7l2.3-4.5c0,9,0,22.6-9,43
	c-4.5,13.6-18.1,27.1-31.7,36.2c-24.9,13.6-45.2,13.6-65.6,11.3c-22.6-6.8-45.2-20.3-58.8-43c-11.3-15.8-15.8-36.2-15.8-56.5
	c0-40.7,31.7-74.6,65.6-88.2c4.5-2.3,6.8-2.3,13.6-2.3c-4.5,0-6.8,2.3-11.3,6.8c-11.3,6.8-20.3,20.3-24.9,31.7l67.9-29.4v95
	l-54.3,27.1c6.8,9,24.9,22.6,40.7,22.6c27.1,4.5,43-9,43-9v-61.1l-20.3-15.8l20.3-18.1v-43c-11.3-2.3-24.9-6.8-33.9-9.1
	c-11.3-2.3-52-13.6-58.8-13.6c-4.5-2.3-13.6-2.3-18.1,2.3c-4.5,4.5-6.8,11.3-6.8,18.1c2.3,4.5,4.5,6.8,6.8,9c0,0-2.3,0-6.8-2.3
	c-6.8-4.5-13.6-13.6-13.6-24.9c-2.3-13.6,4.5-27.1,15.8-36.2c11.3-6.8,22.6-11.3,36.2-9c20.3,2.3,47.5,13.6,70.1,20.3
	c11.3,2.3,18.1,2.3,24.9-2.3c2.3-2.3,6.8-6.8,2.3-13.6c-4.5-9-13.6-9-22.6-11.3C1877.5,1039.4,1879.8,1039.4,1884.3,1041.7
	L1884.3,1041.7z M1805.2,1229.4v-92.7l-27.2,13.6c0,0-9,15.8-6.8,38.4c0,18.1,11.3,38.4,18.1,47.5L1805.2,1229.4L1805.2,1229.4z
	 M2379.6,1306.2c-4.5,2.3-22.6-2.3-27.2-22.6c-4.5-20.3,9.1-31.6,29.4-54.3L2357,1209v-43c0,0,18.1-6.8,31.7-15.8l27.1-18.1
	c0,0,11.3,13.6,22.6,11.3c18.1-2.3,18.1-15.8,15.8-18.1c4.5,4.5,11.3,20.3-20.4,58.8l27.2,20.3v54.3c0,0-31.7,15.8-58.8,36.2
	c0,0-15.8-20.4-29.4-11.3C2361.5,1290.4,2366,1301.7,2379.6,1306.2L2379.6,1306.2z M2357,1265.5c0,0,13.6-22.6,38.5-18.1
	c22.6,4.5,29.4,27.1,29.4,27.1v-54.3l-15.8-13.6C2393.1,1224.8,2361.5,1249.7,2357,1265.5L2357,1265.5z M2393.1,1150.2v43l13.6,13.6
	c0,0,31.7-24.9,43-49.8c0,0-13.6,20.3-33.9,13.6C2399.9,1166,2393.1,1150.2,2393.1,1150.2L2393.1,1150.2z M1404.9,1168.3l11.3-9.1
	h2.3l-11.3,11.3v85.9c0,0-22.6,11.3-36.2,20.4l-31.7,18.1l-40.7-33.9l-9,9h-2.3l11.3-11.3V1166c0,0,18.1-6.8,33.9-15.8
	c13.6-9.1,29.4-18.1,29.4-18.1L1404.9,1168.3z M1337.1,1245.2l31.6,29.4v-92.7l-31.6-29.4V1245.2z M1484.1,1159.3l24.9-24.9
	c0,0,2.3,2.3,6.8,4.5c2.3,2.3,9,4.5,15.8,2.3c4.5-2.3,4.5-4.5,9-6.8c0,20.3-9,33.9-20.4,38.4c-6.8,2.3-20.3,6.8-36.2-11.3v92.7
	l18.1,13.6l11.3-9.1h2.3L1475,1295l-31.7-29.4l-11.3,11.3l-2.3-2.3l15.8-15.8v-79.1l-11.3-18.1l-11.3,9.1h-2.3l40.7-36.2
	L1484.1,1159.3L1484.1,1159.3z M1590.3,1200l45.2-67.8c0,0,6.8,6.8,18.1,9c13.6,4.5,27.1-9,27.1-9c-2.3,18.1-11.3,38.4-31.7,40.7
	c-15.8,2.3-31.7-11.3-31.7-11.3l-2.3,6.8l63.3,97.2l13.6-11.3l2.3,2.3l-45.2,38.5L1590.3,1200L1590.3,1200z"/>
<path class="st1" d="M1551.9,1109.5c0-15.8-6.8-24.9-15.8-24.9l52-33.9V1252l13.6,13.6l9-9l2.3,2.3l-40.7,36.2l-27.2-27.1
	l-11.3,11.3l-2.3-2.3l20.3-18.1L1551.9,1109.5L1551.9,1109.5L1551.9,1109.5z M1126.7,1105c0-13.6-6.8-20.3-15.8-20.3
	c-13.6-2.3-15.8,18.1-15.8,18.1s-2.3-15.8,9-27.1c6.8-6.8,20.3-18.1,38.4-13.6c20.3,4.5,27.1,20.3,27.1,33.9v187.7
	c0,0,6.8,2.3,11.3,2.3c6.8,2.3,11.3,2.3,11.3,2.3V1062h2.3v31.7l40.7-33.9l31.7,27.1l13.6-11.3h2.3l-15.8,13.6v174.1
	c0,11.3-2.3,22.6-13.6,29.4c-22.6,15.8-52-2.3-79.2-4.5c-18.1-4.5-47.5-6.8-56.5,11.3c-2.3,4.5-2.3,13.6,6.8,20.4
	c18.1,11.3,95-20.4,122.1-6.8c24.9,11.3,24.9,27.1,20.3,40.7c-6.8,22.6-36.2,27.1-36.2,27.1s15.8-9,11.3-22.6
	c-2.3-6.8-6.8-9.1-22.6-6.8c-33.9,4.5-72.4,20.3-99.5,9c-13.6-6.8-24.9-22.6-22.6-40.7c0-24.9,29.4-33.9,29.4-33.9v-90.5
	c-2.3-2.3-15.8-2.3-20.3,4.5c-4.5,11.3,6.8,15.8,6.8,15.8s-9.1,0-18.1-9c-2.3-4.5-11.3-18.1,0-33.9c6.8-11.3,18.1-13.6,31.7-13.6
	L1126.7,1105L1126.7,1105z M1194.6,1290.4c0,0,13.6,2.3,20.3-4.5c11.3-9,9-18.1,9-18.1v-70.1c0,0-4.5-9.1-13.6-9.1
	c-9,0-15.8,9.1-15.8,9.1L1194.6,1290.4L1194.6,1290.4L1194.6,1290.4z M1224,1105l-18.1-15.8l-11.3,6.8v65.6c0,0,6.8,6.8,15.8,6.8
	s13.6-6.8,13.6-6.8V1105z M1224,1166c0,0-4.5,4.5-13.6,4.5s-15.8-4.5-15.8-4.5v27.1c0,0,6.8-6.8,15.8-6.8s13.6,6.8,13.6,6.8V1166z"
	/>
</svg>
