<?xml version="1.0" encoding="UTF-8"?>
<svg id="Livello_2" data-name="Livello 2" xmlns="http://www.w3.org/2000/svg" viewBox="0 0 60.06 40.87">
  <defs>
    <style>
      .cls-1 {
        fill: #fff;
      }
    </style>
  </defs>
  <g id="SLIDE_C1" data-name="SLIDE C1">
    <path class="cls-1" d="M11.15,0l11.15,10.42-3.43,3.67-5.2-4.86v21.27c0,2.77,2.25,5.03,5.03,5.03h13.84v5.03h-13.84c-5.56,0-10.07-4.51-10.07-10.07V9.24l-5.21,4.86-3.43-3.67L11.15,0ZM41.36,5.34h-13.84V.3h13.84c5.56,0,10.07,4.51,10.07,10.07v21.27l5.21-4.86,3.43,3.67-11.15,10.42-11.15-10.42,3.43-3.67,5.2,4.86V10.37c0-2.77-2.26-5.03-5.03-5.03Z"/>
  </g>
</svg>