<?xml version="1.0" encoding="utf-8"?>
<!-- Generator: Adobe Illustrator 28.0.0, SVG Export Plug-In . SVG Version: 6.00 Build 0)  -->
<svg version="1.1" id="Livello_1" xmlns="http://www.w3.org/2000/svg" xmlns:xlink="http://www.w3.org/1999/xlink" x="0px" y="0px"
	 viewBox="0 0 2500 2500" style="enable-background:new 0 0 2500 2500;" xml:space="preserve">
<style type="text/css">
	.st0{display:none;fill-rule:evenodd;clip-rule:evenodd;fill:#FFFFFF;}
	.st1{fill-rule:evenodd;clip-rule:evenodd;fill:#FFFFFF;}
</style>
<g>
	<path class="st0" d="M3.4,0h2500v2500H3.4V0z"/>
	<path class="st1" d="M234.3,1392.7v-28.1c-12.1,0-20.1-4-20.1-12.1v-325.6c0-8-4-8-8-8H178l-60.3,28.1l-4,4v20.1h4l12.1,8
		c4,4,4,4,4,8v265.3c0,8-8,12.1-20.1,12.1v28.1H234.3L234.3,1392.7z M656.4,1392.7v-28.1c-12.1,0-24.1-4-24.1-12.1V1244
		c24.1,0,48.2,148.8,72.4,148.8h96.5l-4-24.1c-36.2-4-48.2-116.6-76.4-140.7c-4-4-4-4,0-8c16.1-12.1,56.3-24.1,56.3-96.5
		c0-84.4-88.4-92.5-88.4-92.5H515.7v28.1c12.1,4,24.1,8,24.1,28.1v265.3c0,8-16.1,12.1-24.1,12.1v28.1L656.4,1392.7L656.4,1392.7z
		 M632.3,1203.8c0,0,48.2,0,48.2-44.2v-44.2c0-44.2-48.2-44.2-48.2-44.2V1203.8z"/>
	<path class="st1" d="M849.4,1227.9h32.2c0,0,8-48.2-16.1-48.2S849.4,1227.9,849.4,1227.9z M853.4,1260.1H958c0,0,8-24.1-4-56.3
		c-8-28.1-28.1-60.3-80.4-60.3c-52.3,0-100.5,44.2-100.5,124.6c0,84.4,48.2,132.7,96.5,132.7c44.2,0,72.4-24.1,92.5-64.3l-20.1-20.1
		c0,0-16.1,24.1-48.2,24.1C865.5,1336.4,845.4,1296.2,853.4,1260.1z"/>
	<path class="st1" d="M1070.5,1485.2V1453c-8,0-16.1-4-16.1-12.1v-44.2c68.4,16.1,116.6-28.1,116.6-128.6
		c0-100.5-40.2-120.6-76.4-120.6c-20.1,0-36.2,8-40.2,16.1v-12.1c0-4-4-4-8-4h-28.1l-60.3,28.1c-4,0-4,4-4,4v16.1c0,4,4,4,4,4
		l12.1,8c4,4,4,4,4,8V1441c0,8-8,12.1-20.1,12.1v32.2C994.1,1485.2,1030.3,1485.2,1070.5,1485.2L1070.5,1485.2z M1050.4,1227.9
		v112.6c0,0,20.1,60.3,40.2,0C1102.7,1292.2,1090.6,1163.6,1050.4,1227.9z"/>
	<path class="st1" d="M1163,1163.6l64.3-12.1h28.1v184.9c0,16.1,32.2,20.1,32.2-4v-124.6c0,0-4-20.1-16.1-20.1v-24.1l60.3-12.1h28.1
		v184.9c0,0-1,28.1,16.1,28.1l4,24.1l-32.2,12.1h-60.3v-20.1c-16.1,12.1-28.1,20.1-56.3,20.1c-56.3,0-48.2-68.4-48.2-68.4v-124.6
		c0,0-8-20.1-20.1-20.1L1163,1163.6L1163,1163.6L1163,1163.6z M1460.5,1276.1v-48.2c40.2-64.3,52.3,64.3,36.2,112.6
		c-16.1,60.3-36.2,0-36.2,0V1276.1z M1460.5,1163.6v-136.7c0-8,0-8-8.1-8h-28.1L1368,1047l-4,4v20.1l12.1,8c4,4,4,4,4,8v281.4
		c24.1,32.2,49.6,30.8,80.4,32.2c60.8,2.6,120.6-32.2,120.6-132.7c0-100.5-40.2-120.6-76.4-120.6
		C1484.6,1147.5,1468.5,1155.5,1460.5,1163.6L1460.5,1163.6z"/>
	<path class="st1" d="M1665.5,1276.1v-48.2c40.2-64.3,52.3,64.3,36.2,112.6c-16.1,60.3-36.2,0-36.2,0V1276.1z M1665.5,1163.6v-136.7
		c0-8,0-8-8-8h-28.1L1573,1047l-4,4v20.1l12.1,8c4,4,4,4,4,8v281.4c24.1,32.2,49.6,30.8,80.4,32.2c60.8,2.6,120.6-32.2,120.6-132.7
		c0-100.5-40.2-120.6-76.4-120.6C1689.6,1147.5,1673.6,1155.5,1665.5,1163.6L1665.5,1163.6z"/>
	<path class="st1" d="M1894.6,1392.7v-28.1c-12.1,0-20.1-4-20.1-12.1v-325.6c0-8-4-8-8.1-8h-28.1l-60.3,28.1l-4,4v20.1h4l12.1,8
		c4,4,4,4,4,8v265.3c0,8-8.1,12.1-20.1,12.1v28.1H1894.6L1894.6,1392.7z M2015.2,1392.7v-28.1c-8,0-16.1-4-16.1-12.1v-197
		c0-8-4-8-8-8H1963l-60.3,28.1l-4,4v20.1c0,0,4,0,4,4l12.1,8c4,0,4,0,4,4v136.7c0,8-8,12.1-20.1,12.1v28.1L2015.2,1392.7
		L2015.2,1392.7z M1955,1103.3c24.1,0,44.2-20.1,44.2-44.2c0-24.1-20.1-44.2-44.2-44.2c-24.1,0-44.2,20.1-44.2,44.2
		C1910.7,1083.2,1930.8,1103.3,1955,1103.3z"/>
	<path class="st1" d="M2127.8,1340.5c24.1,0,32.2-20.1,32.2-20.1l20.1,24.1c-12.1,36.2-32.2,56.3-80.4,56.3
		c-48.2,0-96.5-48.2-96.5-132.7c0-76.4,44.2-120.6,96.5-124.6c36.2-4,84.4,24.1,80.4,60.3c-4,40.2-32.2,40.2-36.2,40.2
		c-4,0-32.2,0-32.2-32.2c0-32.2-12.1-32.2-12.1-32.2c-16.1,0-24.1,20.1-24.1,40.2v64.3C2079.6,1316.3,2099.7,1340.5,2127.8,1340.5
		L2127.8,1340.5z M2365,1183.7v164.8c12.1,0,24.1-8,24.1-8h4v32.2c0,8-16.1,28.1-52.3,28.1c-36.2,0-48.2-28.1-48.2-28.1
		c-20.1,36.2-64.3,28.1-80.4,20.1c-12.1-4-32.2-20.1-28.1-64.3c4-44.2,96.5-76.4,108.5-84.4v-60.3c-4-12.1-20.1-8-28.1,0
		c-12.1,16.1,0,36.2,0,36.2l-68.4,20.1c-20.1-76.4,44.2-96.5,88.4-96.5C2357,1143.5,2365,1183.7,2365,1183.7L2365,1183.7z
		 M2292.6,1336.4v-52.3c-4,0-36.2,24.1-36.2,40.2C2260.5,1344.5,2272.5,1348.5,2292.6,1336.4z M407.2,1183.7v164.8
		c12.1,0,24.1-8,24.1-8h4v32.2c0,8-16.1,28.1-52.3,28.1c-36.2,0-48.2-28.1-48.2-28.1c-20.1,36.2-64.3,28.1-80.4,20.1
		c-12.1-4-32.2-20.1-28.1-64.3c4-44.2,96.5-76.4,108.5-84.4v-60.3c-4-12.1-20.1-8-28.1,0c-12.1,16.1,0,36.2,0,36.2l-68.4,20.1
		c-20.1-76.4,44.2-96.5,88.4-96.5C399.2,1143.5,407.2,1183.7,407.2,1183.7L407.2,1183.7z M334.8,1336.4v-52.3
		c-4,0-36.2,24.1-32.2,40.2C302.7,1344.5,314.7,1348.5,334.8,1336.4z"/>
</g>
</svg>
