<?xml version="1.0" encoding="utf-8"?>
<!-- Generator: Adobe Illustrator 28.0.0, SVG Export Plug-In . SVG Version: 6.00 Build 0)  -->
<svg version="1.1" id="Livello_1" xmlns="http://www.w3.org/2000/svg" xmlns:xlink="http://www.w3.org/1999/xlink" x="0px" y="0px"
	 viewBox="0 0 2500 465" style="enable-background:new 0 0 2500 465;" xml:space="preserve">
<style type="text/css">
	.st0{fill:#FFFFFF;}
</style>
<path class="st0" d="M781.5,184.7c-0.8,1.6-2,2.7-3.1,3.9c-1.2,0.8-2.7,1.2-4.3,1.2c-2,0-3.5-0.4-5.1-1.6c-2-1.2-3.9-2-6.3-3.5
	c-2.7-1.2-5.1-2.4-7.8-3.5c-3.1-1.2-6.7-1.6-10.2-1.6c-5.5-0.4-10.6,1.2-14.9,4.3c-3.1,2.7-5.1,7.1-4.7,11.4c0,2.7,0.8,5.5,3.1,7.8
	c2.4,2.4,4.7,3.9,7.8,5.1c3.5,1.6,7.1,3.1,11,3.9c3.9,1.2,8.2,2.7,12.5,3.9c4.3,1.6,8.6,3.1,12.5,5.5c3.9,2,7.8,4.7,11,7.8
	c3.1,3.1,5.9,7.1,7.8,11.4c2,5.1,3.1,10.6,3.1,16.5c0,6.7-1.2,13.3-3.5,20c-2.4,5.9-5.9,11.4-10.6,16.1c-5.1,4.7-11,8.6-17.3,11
	c-7.4,2.7-15.3,3.9-23.1,3.9c-4.7,0-9.8-0.4-14.5-1.6c-4.7-0.8-9.8-2.4-14.5-4.3c-4.7-1.6-9-3.9-12.9-6.3c-3.9-2.4-7.4-5.1-10.6-8.2
	l10.6-16.5c0.8-1.2,2-2.4,3.1-3.1c1.6-0.8,2.7-1.2,4.7-1.2c2.4,0,4.3,0.8,6.3,2s4.7,2.7,7.1,4.3c3.1,1.6,5.9,3.1,9.4,4.3
	c3.9,1.6,8.2,2,12.5,2c5.5,0.4,10.6-1.2,14.9-4.3c3.9-3.5,5.9-8.2,5.5-13.3c0-3.1-0.8-6.3-3.1-8.6c-2-2.4-4.7-4.3-7.8-5.5
	c-3.5-1.6-7.1-2.7-11-3.9c-3.9-1.2-8.2-2.4-12.5-3.5c-4.3-1.6-8.6-3.1-12.5-5.1c-3.9-2-7.8-4.7-11-7.8c-3.5-3.5-5.9-7.8-7.8-12.2
	c-2-5.9-3.1-11.8-3.1-18c0-5.9,1.2-11.4,3.5-16.9s5.9-10.6,10.2-14.5c4.7-4.3,10.2-7.8,16.5-10.2c7.1-2.7,14.9-3.9,22.3-3.9
	c4.7,0,9,0.4,13.7,1.2c4.3,0.8,8.6,2,12.5,3.1c3.9,1.6,7.4,3.1,11.4,5.1c3.5,2,6.3,4.3,9.4,6.7L781.5,184.7z M883.8,306.6
	c-2.4,0-4.7-0.4-6.7-1.2c-2-1.2-3.1-3.1-3.9-5.1l-2.4-5.9c-2.7,2.4-5.1,4.3-7.4,5.9c-2.4,1.6-5.1,3.1-7.4,4.3
	c-2.7,1.2-5.5,2-8.2,2.7c-3.1,0.8-6.7,0.8-9.8,0.8c-4.3,0-9-0.4-13.3-2c-3.5-1.2-7.1-3.1-10.2-5.5c-2.7-2.4-5.1-5.5-6.3-9
	c-1.6-3.9-2.4-8.2-2.4-12.5c0-3.9,1.2-7.8,2.7-11.4c2.4-4.3,5.9-8.2,9.8-11c5.9-3.9,12.2-6.7,18.8-8.2c9.8-2.4,20-3.5,30.2-3.1v-4.7
	c0.4-4.7-0.8-9.8-3.9-13.7c-2.7-2.7-6.7-4.3-11-4.3c-3.1,0-6.3,0.4-9,1.2c-2.4,0.8-4.3,1.6-6.3,2.7c-2,1.2-3.5,2-5.5,2.7
	c-2,0.8-4.3,1.2-6.3,1.2c-2,0-3.9-0.4-5.5-1.6c-1.6-1.2-2.7-2.4-3.5-3.9l-5.9-9.8c6.3-5.5,13.3-9.8,21.2-12.5
	c8.2-2.7,16.5-4.3,25.1-4.3c5.9,0,11.8,0.8,17.3,3.1c5.1,2,9.4,4.7,12.9,8.6s6.3,8.2,8.2,13.3c2,5.5,2.7,11,2.7,16.9v65.9h-14.1
	L883.8,306.6z M847.3,287.4c3.5,0,7.4-0.8,10.6-2c3.5-1.6,6.7-3.9,9.4-7.1v-14.5c-5.1,0-10.6,0.4-15.7,1.2c-3.5,0.4-6.7,1.6-9.8,3.1
	c-2,0.8-3.9,2.4-5.1,4.3c-0.8,1.6-1.6,3.1-1.6,5.1c-0.4,2.7,0.8,5.9,3.1,7.8C841.1,287,844.2,287.8,847.3,287.4L847.3,287.4z
	 M976.3,306.6h-28.6l-41.2-105.9h26.3c2,0,3.9,0.4,5.5,1.6c1.6,0.8,2.4,2.4,3.1,3.9l14.5,47.4c1.2,3.9,2.4,7.4,3.1,11.4
	c0.8,3.9,2,7.4,2.7,11c0.8-3.5,1.6-7.4,2.7-11c1.2-3.5,2.4-7.4,3.5-11.4l15.3-47.4c0.4-1.6,1.6-3.1,3.1-3.9c1.6-1.2,3.5-1.6,5.5-1.6
	h25.1L976.3,306.6z M1073.2,199.2c6.7,0,12.9,1.2,19.2,3.1c5.5,2,10.6,5.1,14.9,9.4c4.3,4.3,7.8,9.4,9.8,15.3
	c2.4,6.7,3.5,13.3,3.5,20.4c0,2,0,3.9-0.4,5.9c0,1.2-0.4,2.4-1.2,3.5c-0.4,0.8-1.2,1.6-2.4,2c-1.2,0.4-2.4,0.4-3.5,0.4H1052
	c0.4,7.1,3.1,14.1,8.2,19.2c4.7,3.9,10.6,6.3,16.9,5.9c3.1,0,6.3-0.4,9.4-1.2c2.4-0.8,4.7-2,7.1-3.1c2-1.2,3.9-2,5.9-3.1
	c1.6-0.8,3.5-1.2,5.5-1.2c2.4,0,4.3,0.8,5.9,2.7l9,11.4c-3.1,3.5-6.7,6.7-10.6,9c-3.5,2.4-7.4,4.3-11.8,5.5
	c-3.9,1.2-7.8,2.4-11.8,2.7c-3.9,0.4-7.4,0.8-11.4,0.8c-7.1,0-14.1-1.2-20.8-3.5c-6.3-2.4-12.2-5.9-16.9-10.6
	c-5.1-5.1-9-11-11.4-17.6c-3.1-7.8-4.3-16.1-4.3-24.7c0-6.7,1.2-13.7,3.5-20c4.7-12.5,14.5-22.7,26.7-27.8
	C1058.3,200.7,1065.7,199.2,1073.2,199.2L1073.2,199.2z M1074,221.1c-5.1-0.4-10.2,1.6-14.1,5.1c-3.9,4.3-6.3,9.4-6.7,14.9h39.6
	c0-2.4-0.4-5.1-0.8-7.4c-0.8-2.4-1.6-4.3-3.1-6.3c-1.6-2-3.5-3.5-5.9-4.7C1079.8,221.5,1076.7,221.1,1074,221.1L1074,221.1z
	 M1218.2,308.2c-4.7,0-9-0.8-13.3-2.4c-7.4-2.7-13.3-8.6-15.7-16.1c-1.6-3.9-2-8.2-2-12.5v-54.5h-9c-3.1,0-5.9-2.4-5.9-5.5v-12.9
	l16.9-3.1l6.3-25.9c0.8-3.1,3.5-5.5,7.1-4.7h16.5v31h25.9v21.6H1219v52.5c0,2.4,0.4,4.3,2,5.9c1.2,1.6,3.1,2.4,5.1,2.4
	c1.2,0,2,0,2.7-0.4s1.6-0.4,2-0.8c0.4-0.4,1.2-0.4,1.6-0.8c0.4-0.4,1.2-0.4,2-0.4s1.6,0,2.4,0.8l2,2l9.4,14.9
	c-4.3,3.1-8.6,5.5-13.7,7.1C1229.2,307.4,1223.7,308.2,1218.2,308.2L1218.2,308.2z M1262.5,306.6V154.1h31.8v56.1
	c3.9-3.1,7.8-5.9,12.5-7.8c5.1-2,10.6-3.1,16.1-3.1c5.1,0,10.6,0.8,15.3,3.1c4.3,2,8.2,4.7,11.4,8.2c3.1,3.9,5.5,8.2,7.1,12.5
	c1.6,5.1,2.4,10.6,2.4,16.1v67h-31.8v-66.7c0.4-4.3-1.2-8.6-3.5-12.2c-2.7-3.1-6.7-4.7-10.6-4.3c-3.5,0-6.7,0.8-9.8,2.4
	c-3.1,1.6-6.3,3.5-8.6,5.9v75.3L1262.5,306.6z M1426.8,199.2c6.7,0,12.9,1.2,19.2,3.1c5.5,2,10.6,5.1,14.9,9.4
	c4.3,4.3,7.8,9.4,9.8,15.3c2.4,6.7,3.5,13.3,3.5,20.4c0,2,0,3.9-0.4,5.9c0,1.2-0.4,2.4-1.2,3.5c-0.4,0.8-1.2,1.6-2.4,2
	c-1.2,0.4-2.4,0.4-3.5,0.4H1406c0.4,7.1,3.1,14.1,8.2,19.2c4.7,3.9,10.6,6.3,16.9,5.9c3.1,0,6.3-0.4,9.4-1.2c2.4-0.8,4.7-2,7.1-3.1
	c2-1.2,3.9-2,5.9-3.1c1.6-0.8,3.5-1.2,5.5-1.2c2.4,0,4.3,0.8,5.9,2.7l9,11.4c-3.1,3.5-6.7,6.7-10.6,9c-3.5,2.4-7.4,4.3-11.8,5.5
	c-3.9,1.2-7.8,2.4-11.8,2.7c-3.9,0.4-7.4,0.8-11.4,0.8c-7.1,0-14.1-1.2-20.8-3.5c-6.3-2.4-12.2-5.9-16.9-10.6
	c-5.1-5.1-9-11-11.4-17.6c-3.1-7.8-4.3-16.1-4.3-24.7c0-6.7,1.2-13.7,3.5-20c4.7-12.5,14.5-22.7,26.7-27.8
	C1411.9,200.7,1419.4,199.2,1426.8,199.2L1426.8,199.2z M1427.6,221.1c-5.1-0.4-10.2,1.6-14.1,5.1c-3.9,4.3-6.3,9.4-6.7,14.9h39.6
	c0-2.4-0.4-5.1-0.8-7.4c-0.8-2.4-1.6-4.3-3.1-6.3c-1.6-2-3.5-3.5-5.9-4.7C1433.5,221.5,1430.7,221.1,1427.6,221.1L1427.6,221.1z
	 M1639.3,267c0.8,0,1.6,0,2.4,0.4c0.8,0.4,1.6,0.8,2.4,1.6l14.1,14.9c-5.9,7.8-14.1,14.1-23.1,18c-10.6,4.3-21.6,6.3-32.9,6.3
	c-10.6,0-21.2-2-31.4-5.9c-9-3.9-16.9-9.4-23.5-16.5c-6.7-7.1-11.4-15.7-14.9-24.7c-3.5-10.2-5.1-20.4-5.1-31
	c0-10.6,2-21.6,5.9-31.4c3.9-9.4,9.4-17.6,16.5-24.7c7.1-7.1,15.7-12.5,25.1-16.1c10.2-3.9,21.2-5.9,32.5-5.9c5.5,0,11,0.4,16.1,1.6
	c4.7,0.8,9.8,2.4,14.1,4.3c4.3,1.6,8.2,3.9,12.2,6.3c3.5,2.4,7.1,5.1,9.8,8.2l-12.2,16.1c-0.8,1.2-1.6,2-2.7,2.7
	c-1.2,0.8-2.7,1.2-4.3,1.2c-1.2,0-2.4-0.4-3.5-0.8c-1.2-0.8-2.4-1.2-3.5-2s-2.7-1.6-4.3-2.7s-3.5-2-5.5-2.7c-2.4-0.8-4.7-1.6-7.1-2
	c-3.1-0.8-6.3-0.8-9.8-0.8c-5.9,0-12.2,1.2-17.6,3.5c-5.1,2.4-9.8,5.5-13.7,9.8c-3.9,4.3-7.1,9.8-9,15.3c-2.4,6.7-3.1,13.3-3.1,20.4
	s0.8,14.1,3.1,20.8c2,5.5,4.7,11,8.6,15.3c3.5,3.9,7.8,7.4,12.9,9.4c5.1,2.4,10.2,3.1,15.7,3.1c3.1,0,5.9,0,8.6-0.4
	c2.4-0.4,5.1-0.8,7.4-1.6c2.4-0.8,4.3-2,6.7-3.1c2.4-1.2,4.3-2.7,6.3-4.7c0.8-0.8,1.6-1.2,2.7-1.6C1637,267.4,1638.2,267,1639.3,267
	L1639.3,267z M1674.2,306.6V154.1h31.8v56.1c3.9-3.1,7.8-5.9,12.5-7.8c5.1-2,10.6-3.1,16.1-3.1c5.1,0,10.6,0.8,15.3,3.1
	c4.3,2,8.2,4.7,11.4,8.2c3.1,3.9,5.5,8.2,7.1,12.5c1.6,5.1,2.4,10.6,2.4,16.1v67h-31.8v-66.7c0.4-4.3-1.2-8.6-3.5-12.2
	c-2.7-3.1-6.7-4.7-10.6-4.3c-3.5,0-6.7,0.8-9.8,2.4c-3.1,1.6-6.3,3.5-8.6,5.9v75.3H1674.2z M1830.7,172.1c0,2.4-0.4,4.7-1.6,7.1
	c-1.2,2.4-2.4,4.3-4.3,5.9c-2,1.6-3.9,3.1-6.3,3.9c-2.4,1.2-5.1,1.6-7.4,1.6c-2.4,0-5.1-0.4-7.1-1.6c-2.4-0.8-4.3-2.4-5.9-3.9
	c-1.6-1.6-3.1-3.5-3.9-5.9c-1.2-2.4-1.6-4.7-1.6-7.1c0-2.4,0.4-5.1,1.6-7.1c0.8-2.4,2.4-4.3,3.9-5.9c1.6-1.6,3.9-3.1,5.9-3.9
	c2.4-0.8,4.7-1.6,7.1-1.6c2.7,0,5.1,0.4,7.4,1.6c4.7,2,8.2,5.5,10.2,9.8C1830.3,167,1830.7,169.4,1830.7,172.1z M1827.1,201.1V307
	h-31.8V201.1H1827.1z M1887.5,154.1v152.5h-31.8V154.1H1887.5z M1988.3,306.6c-1.6,0-3.5-0.4-5.1-1.2s-2.4-2.4-2.7-3.9l-2.4-8.2
	c-2,2.4-4.3,4.3-6.7,6.3c-2.4,2-4.7,3.5-7.4,4.7c-2.7,1.2-5.5,2.4-8.6,3.1c-3.1,0.8-6.7,1.2-10.2,1.2c-5.5,0-10.6-1.2-15.3-3.5
	c-4.7-2.4-9-6.3-12.2-10.6c-3.5-5.1-6.3-11-7.8-16.9c-2-7.4-3.1-15.3-2.7-22.7c0-7.4,1.2-14.9,3.1-22c2-6.3,5.1-12.2,9.4-17.6
	c3.9-4.7,8.6-8.6,14.5-11.8c5.9-2.7,12.2-4.3,18.4-4.3c4.7,0,9.4,0.8,13.7,2.4c3.5,1.6,7.1,3.5,10.2,6.3v-53.7h31.8v152.5H1988.3z
	 M1956.1,284.3c2,0,4.3-0.4,6.3-0.8c2-0.4,3.5-1.2,5.1-2c1.6-0.8,3.1-2,4.3-3.1c1.6-1.2,2.7-2.7,4.3-4.3v-44.7
	c-2-2.4-4.7-4.3-7.8-5.5c-2.7-1.2-5.9-1.6-8.6-1.6c-2.7,0-5.5,0.4-8.2,1.6c-2.7,1.2-4.7,3.1-6.3,5.5c-2,3.1-3.5,6.3-4.3,9.8
	c-1.2,4.7-1.6,9.8-1.6,14.9c0,4.7,0.4,9.4,1.2,14.1c0.8,3.1,1.6,6.3,3.5,9.4c1.2,2,3.1,3.9,5.1,5.1
	C1951.4,283.5,1953.8,284.3,1956.1,284.3L1956.1,284.3z M2033,306.6V200.7h18.8c1.2,0,2.7,0,3.9,0.4c0.8,0.4,2,0.8,2.7,1.2
	c0.8,0.8,1.2,1.6,1.6,2.4c0.4,1.2,0.8,2.4,0.8,3.5l1.6,9.8c3.5-5.5,7.8-10.2,12.9-14.1c4.7-3.5,10.2-5.1,15.7-5.1
	c4.3-0.4,8.2,1.2,11.8,3.5l-3.9,23.1c0,1.2-0.8,2.4-1.6,3.1s-2,0.8-3.1,0.8c-1.2,0-2.7,0-3.9-0.4c-2-0.4-3.9-0.4-5.9-0.4
	c-8.2,0-14.9,4.3-19.6,13.3v64.7L2033,306.6z M2160.4,199.2c6.7,0,12.9,1.2,19.2,3.1c5.5,2,10.6,5.1,14.9,9.4
	c4.3,4.3,7.8,9.4,9.8,15.3c2.4,6.7,3.5,13.3,3.5,20.4c0,2,0,3.9-0.4,5.9c0,1.2-0.4,2.4-1.2,3.5c-0.4,0.8-1.2,1.6-2.4,2
	c-1.2,0.4-2.4,0.4-3.5,0.4h-60.8c0.4,7.1,3.1,14.1,8.2,19.2c4.7,3.9,10.6,6.3,16.9,5.9c3.1,0,6.3-0.4,9.4-1.2c2.4-0.8,4.7-2,7.1-3.1
	c2-1.2,3.9-2,5.9-3.1c1.6-0.8,3.5-1.2,5.5-1.2c2.4,0,4.3,0.8,5.9,2.7l9,11.4c-3.1,3.5-6.7,6.7-10.6,9c-3.5,2.4-7.4,4.3-11.8,5.5
	c-3.9,1.2-7.8,2.4-11.8,2.7c-3.9,0.4-7.4,0.8-11.4,0.8c-7.1,0-14.1-1.2-20.8-3.5c-6.3-2.4-12.2-5.9-16.9-10.6
	c-5.1-5.1-9-11-11.4-17.6c-3.1-7.8-4.3-16.1-4.3-24.7c0-6.7,1.2-13.7,3.5-20c4.7-12.5,14.5-22.7,26.7-27.8
	C2145.5,200.7,2152.9,199.2,2160.4,199.2L2160.4,199.2z M2161.2,221.1c-5.1-0.4-10.2,1.6-14.1,5.1c-3.9,4.3-6.3,9.4-6.7,14.9h39.2
	c0-2.4-0.4-5.1-0.8-7.4c-0.8-2.4-1.6-4.3-3.1-6.3c-1.6-2-3.5-3.5-5.9-4.7C2167.1,221.5,2163.9,221.1,2161.2,221.1L2161.2,221.1z
	 M2228.2,306.6V200.7h19.6c1.6,0,3.5,0.4,5.1,1.2s2.4,2.4,2.7,3.9l2,6.3c2-2,4.3-3.5,6.3-5.5c2.4-1.6,4.7-3.1,7.1-4.3
	c2.7-1.2,5.1-2,8.2-2.7c3.1-0.8,6.3-1.2,9.4-0.8c5.1,0,10.6,0.8,15.3,3.1c4.3,2,8.2,4.7,11.4,8.2c3.1,3.9,5.5,8.2,7.1,12.5
	c1.6,5.1,2.4,10.6,2.4,16.1v67h-31.8v-66.3c0.4-4.3-1.2-8.6-3.5-12.2c-2.7-3.1-6.7-4.7-10.6-4.3c-3.5,0-6.7,0.8-9.8,2.4
	c-3.1,1.6-6.3,3.5-8.6,5.9v75.3H2228.2z M573.7,113.3c18.8-22,27.1-32.2,25.1-38c-2.4-5.1-7.1-9-12.2-10.2
	c-7.1-2.7-16.9-3.9-21.6-1.2c-3.9,3.1-7.4,7.1-10.6,11l-5.9,6.7c-3.9-3.9-7.8-7.8-11.8-11c-28.6-25.1-63.9-41.2-101.5-47
	C420,7.4,400.4,0,380.8,2.7C363.9,5.5,349,15.7,340,30.2C301.2,42,266.7,63.9,239.2,94.1c-6.3-2-19.6,0.4-28.2,5.1
	c-3.9,1.6-7.1,5.1-8.2,9c-0.4,2.7,0.8,6.7,11,18.8c-27.1,42.7-38.4,93.3-32.9,143.5c5.9,50.2,29.8,96.5,67.8,129.8
	c13.3,11.8,28.2,21.6,43.9,29c73.7,35.7,160,32.5,230.9-8.2c5.9-3.5,7.8-10.6,5.1-16.5l-0.8-2c-11.8-25.9-47-105.5-27.4-177.6
	c8.2-30.2,32.2-62.3,52.5-87.8c22,33.7,32.9,73.7,31.4,114.1c-1.2,36.9-13.7,72.5-36.1,101.9c-1.2,1.2-1.2,2.7-0.8,4.3l2.4,5.1
	c1.2,2,3.5,3.1,5.5,2c0.8-0.4,1.2-0.8,1.6-1.2C615.2,290.5,622.3,189,573.7,113.3L573.7,113.3z M316.9,284.3
	c-7.8,39.6-9.4,80.4-5.1,120.8c-14.9-7.4-29-17.3-42-28.2c-34.5-29.8-57.6-70.6-65.9-115.7c-7.8-42-0.8-85.5,20-122.7
	c7.8,8.2,17.3,17.6,27.1,27.1c23.9,23.9,51.4,51,64.7,70.2C323.5,246.6,321.2,260.7,316.9,284.3 M526.6,105.1
	c-44.3,44.7-86.3,69-124.3,71.7c-29.4,2.4-60.4-6.7-92.1-25.9c-21.2-13.3-41.2-29-58.8-46.7l-1.2-1.2c22-23.5,49.4-40.4,80.4-49.8
	c-3.1,12.5-3.9,25.1-2,38c3.1,22.3,14.9,42.3,32.5,56.1c25.1,19.6,61.2,14.9,80.8-9.8c0.8-1.2,1.6-2,2.4-3.1
	c12.9-18.4,17.6-41.2,14.1-63.5c-0.8-4.3-1.6-8.6-2.7-12.5c22.3,8.6,43.1,20.8,60.8,36.9C519.6,98,523.1,101.2,526.6,105.1
	L526.6,105.1z"/>
</svg>
