<?xml version="1.0" encoding="UTF-8"?>
<svg id="Livello_2" data-name="Livello 2" xmlns="http://www.w3.org/2000/svg" viewBox="0 0 2663.3 682.67">
  <defs>
    <style>
      .cls-1 {
        fill: #fff;
      }
    </style>
  </defs>
  <g id="SLIDE_C1" data-name="SLIDE C1">
    <path class="cls-1" d="M4.87,243.3c52.06-109.79,183.58-79.56,284.17-75.3.3,39.43,8.26,75.95-40.96,81.69-15.16,1.77-178.25-12.57-148.47,31.13,84.03,23.95,242.54,26.51,210.29,155.77-19.42,77.86-95.34,84.81-164.03,86.59-20.35.53-101.37-1.95-116.05-6.74-5.97-1.95-11.52-4.98-15.77-9.68-16.89-131.24,149.8-42.46,192.87-78.41,48.5-40.48-97.51-51.66-113.76-56.37-45.43-13.17-66.07-31.78-88.29-72.24,0,0-4.87-8.87-4.87-28.68s4.87-27.77,4.87-27.77Z"/>
    <path class="cls-1" d="M1145.92,0l1486,1.49c18.45,7.27,30.89,24.07,31.38,44.1l-2.96,605.74c-7.63,15.12-18.95,31.46-37.9,31.35l-1492.13-4.96-15.79-15.68-4.99-622.9c.26-20.16,18.86-32.93,36.38-39.13ZM1311.92,434.6c-11.23-51.91,8.34-141.28,0-197.57h104.18c20.49,0,26.24-33.65,22.1-50.18h-126.28l-.9-68.08c-20.99-10.33-50.3-13.7-55.75,14.94,5.97,93.17-8.59,196.78-.44,288.6,8.1,91.3,100.09,111.43,174.27,78.51,27.43-12.17,30.29-42.7,4.55-49.63-20.81-5.6-109.51,39.92-121.74-16.59ZM1854.94,500.46h280.98l8.48-10.38.99-39.8h-208.37l164.2-124.09c68.64-65.65,45.24-190.13-55.2-206.85-42.85-7.13-146.36,3.34-180.94,30.51-17.09,13.43-13.05,43.85,6.9,48.61,11.22,2.68,83.62-28.74,112.56-30.38,92.15-5.24,132.85,68.56,66.27,134.94-34.31,34.2-189.51,124.44-195.74,156.79-2.42,12.58.99,27.61-.14,40.65ZM2448.48,124.12c-30.45-2.28-54.73-10.72-81.75,9.74-38.48,67.55-155.53,159.78-183.95,224.97-8.36,19.19-6.31,33.93-5.81,53.81h221v94.08l47.76-5.87,2.72-88.24c46,1.11,84.46,10.02,75.83-50.17l-75.8.02V124.12ZM1791.8,503.59V189.98c0-13.66-48.57-13.53-55.8,7.3-3.01,8.67,2.59,22.19-4.15,27.16-79.71-84.41-219.19-46.14-251.44,63.9-47.41,161.75,124.85,285.83,254.51,168.2,7.7,105.93-70.05,122.45-157.94,103.64-35.26-7.55-89.72-46.51-71.86,28.78,90.99,43.27,266.94,40.28,286.69-85.38Z"/>
    <path class="cls-1" d="M825.65,362.45c39.25-80.78,52.56-231.71,176.9-194.38l-196.84,441.09c-22.25,35.51-58.37,44.79-97.46,29.93-6.98-2.65-10.57,3.59-8.76-9.83,5.13-38.13,79.21-146.44,74.63-168.01l-128.26-199.3c-7.62-9.59-6.24-4.58-12.8-.02-19.21,13.35-47.26,62.48-71.02,78.52-.92,12.27,95.34,134.37,106.93,162.18,2.8,6.73,8.77,6.22-.92,13.68-127.56,46.41-160.7-106.11-221.26-182.16l5.99-12.71c66.57-49.82,137.32-198.42,238.77-154.97,25.67,10.99,124.6,203.34,134.1,195.99Z"/>
    <path class="cls-1" d="M440.55,42.59v448.46c0,27.71-73.85,38.62-94.71,28.22V77.08c0-33.07,70.1-39.94,94.71-34.5Z"/>
    <path class="cls-1" d="M1619.85,226.07c41.86-5.11,107.43,18.72,114.76,64.62,7.72,48.39,9.19,117.23-35.4,146.01-164.09,105.91-244.86-190.43-79.36-210.63Z"/>
    <polygon class="cls-1" points="2397.96 180.57 2397.96 362.47 2240.11 362.47 2397.96 180.57"/>
  </g>
</svg>