<?xml version="1.0" encoding="UTF-8"?>
<svg id="Livello_2" data-name="Livello 2" xmlns="http://www.w3.org/2000/svg" viewBox="0 0 120 335">
  <defs>
    <style>
      .cls-1 {
        fill: #fff;
        opacity: .5;
      }
    </style>
  </defs>
  <g id="Livello_1-2" data-name="Livello 1">
    <path class="cls-1" d="M72.11,20.63c.35.05.82-.07,1.12.17.89.7.18,6.1-.15,7.35-.81,3.06-3.07,4.26-3.71,6.77-.79,3.11-.98,10.21-.09,13.23,1.84,6.24,11.66,9.22,16.25,11.71,11.44,6.22,7.32,17.81,7.4,29.96.08,11.85,3.06,18.68,5.65,29.35,2.04,8.39,2.13,17.27,4.02,25.87.55,2.51,1.88,8.31,3.15,10.18,1.39,2.06,3.79,1.83,5.65,2.7,1.46.68,3.31,2.78,4.5,4.1.83.93,3.72,4.32,4.07,5.31.19.54-.25.57-.55.67-2.5.88-4.83-2.26-7.04-2.9.08,5.2,2.89,9.82,4.55,14.45,1.56,4.33,1.99,4.76-1.35,8.06l-2.63-2.37c.5,2.52.7,5.7-1.94,3.21l-4.53-9.01c.18,2.95.93,5.94.28,8.88l-1.08-.56c-3.28-8.71-5.69-17.89-8.63-26.76-4.07-12.26-9.08-22.06-11.94-35.39-.9-4.18-1.15-10.07-2.25-13.67-.14-.47.1-.58-.59-.48-.74,6.03-.49,12.2,0,18.27.99,12.34,3.82,24.16,5.54,36.31,1.46,10.31,1.57,18.17,1.2,28.57-.43,12.17-2.5,25.52-2.54,37.23-.02,6.12,1.7,12.88,1.99,19.14,1.01,22.08-6.11,44.62-2.73,66.15.94,5.98,2.71,6.21,4.39,10.73,2.76,7.46-5.31,7.37-9.39,6.95-4.34-.44-4.9-1.59-5.21-6.66-.35-5.76-.55-12-.58-17.74-.03-5.74.92-12.13.57-17.77-.53-8.77-3.71-18.38-4.5-27.33-.63-7.12.4-14.75-.69-21.7-.87-5.55-2.46-10.67-3.21-16.6-1.13-9.08-2.34-18.23-3.38-27.32-.78-6.72-1.04-13.53-1.74-20.26l-3.76-.04c-.97,6.67-1.11,13.56-1.89,20.29-1.06,9.09-2.27,18.22-3.38,27.32-.77,6.33-3.15,13.5-3.58,19.22-.48,6.29.22,12.71-.35,19.04-1,10.93-4.72,21.38-4.48,32.5.16,7.57.61,14.5.3,22.2-.13,3.33-.14,8.05-.64,11.18-.28,1.75-.84,2.57-2.24,3.09-2.37.88-10.99,1.26-12.28-1.71-1.53-3.55,3.13-9.19,4.09-12.66,4.99-18.07-3.11-48.36-2.17-68.9.28-6.11,1.98-12.87,1.99-18.79.03-10.41-2.04-22.77-2.56-33.48-.07-1.47.05-2.96,0-4.43-.34-9.49-.33-17.08.94-26.54,1.71-12.74,4.8-25.1,5.82-38.02.48-6.08.68-12.23,0-18.27-.69-.11-.45,0-.59.48-.88,2.88-1,7.2-1.57,10.39-2.5,13.86-7.5,24.13-11.96,36.72-1.23,3.47-1.97,7.08-3.12,10.56-2.03,6.14-4.24,12.21-6.26,18.36l-.98.34c-.72-2.9.13-5.94.28-8.88l-4.53,9.01c-2.65,2.49-2.44-.69-1.94-3.21l-2.63,2.37c-.66-.87-2.52-2.52-2.66-3.64-.17-1.37,4.24-11.52,4.95-14.02.48-1.7,1.11-3.37.91-5.21-1.81,1.02-3.31,2.79-5.33,3.26-.55.13-2.49.5-2.26-.69,2.03-2.78,4.43-6.19,6.94-8.32,2.44-2.07,6.28-1.46,7.75-4.6,3.89-8.31,4.14-21.4,5.71-30.65,1.45-8.57,5.04-16.11,6.02-25.14.75-6.92.2-11.99.03-18.72-.46-18.3,3.45-16.97,15.12-23.35,7.3-3.99,10.03-6.53,9.38-16.96-.32-5.03-1.04-5.23-3.05-8.94-1.55-2.86-2.52-6.57-1.7-9.97l1.37-.04c.19-5.21-.84-10.59,1.73-15.14,4.14-7.33,16.31-7.19,20.78-.39,3.3,5.02,1.84,9.69,1.99,15.52h0Z"/>
  </g>
</svg>