<?xml version="1.0" encoding="UTF-8"?>
<svg id="Livello_2" data-name="Livello 2" xmlns="http://www.w3.org/2000/svg" viewBox="0 0 33 33">
  <defs>
    <style>
      .cls-1 {
        fill: #fff;
      }
    </style>
  </defs>
  <g id="SLIDE_C1" data-name="SLIDE C1">
    <path class="cls-1" d="M11.44,0c.09.11.27.15.39.22.17.08.33.18.5.25.07.03.05.06.18.07.08.13.27.15.39.22.18.09.37.17.54.25.05.02.09.05.14.07.11.05.26.15.39.22.18.09.36.16.54.25.04.02.1.05.14.07.12.06.26.15.39.22.18.09.37.17.54.25.02,0,.05.04.11.07.16.08.31.17.47.25.1.05.2.14.31.17.08.01.14-.07.19-.1.38-.18.74-.39,1.11-.57.37-.19.72-.36,1.08-.54.16-.08.32-.18.47-.25.02-.01.05-.02.07-.04.16-.08.34-.17.5-.25.34-.17.7-.34,1.04-.5.22-.11.44-.24.68-.29.15.36.36.69.54,1.04.09.17.16.36.25.54.06.11.12.22.18.32.04.09.1.17.14.25.18.35.36.7.54,1.04.18.36.35.72.54,1.08.15.3.29.6.45.9.11.1.39.08.52.11.18.04.33.11.54.11h.04c.13.08.32.08.47.11.18.03.36.07.54.11.18.03.36.08.54.11.16.03.34.04.5.07.19.03.32.08.54.11.01,0,.02,0,.04,0,0,0,.06.04.14.04.01,0,.02,0,.04,0,.46.15.96.2,1.43.29.08.01.16.05.25.04,0,.06,0,.12,0,.18-.02.17-.05.36-.07.54-.02.18-.05.36-.07.54-.02.17-.05.36-.07.54-.04.32-.07.65-.11.97-.03.21-.08.43-.11.65-.02.17-.02.35-.04.5-.03.21-.08.43-.11.65-.02.15-.02.32-.04.47-.02.18-.05.34-.07.54,0,.02,0,.05,0,.07,0,0-.03,0-.04.04-.03.38,0,.21.18.43.09.12.18.24.29.36.06.07.13.12.18.18.12.13.24.26.36.39.04.04.07.1.11.14.13.14.26.36.43.43.01.1.05.07.07.11.13.18.29.37.47.5,0,.01,0,.02,0,.04l1.42,1.58.38.36v.07c-.09-.02-.09.09-.14.14-.01.01-.02.02-.04.04-.16.17-.31.33-.47.5-.03.03-.05.05-.07.07-.14.15-.27.33-.39.47-.06.07-.11.14-.14.18-.09.1-.25.23-.36.36-.06.07-.12.15-.18.22-.1.11-.22.21-.32.32-.08.08-.16.23-.22.29-.05.06-.17.16-.25.25-.42.46-.86.9-1.27,1.36l-.05.1c-.01.05.03.11.03.15.01.18.05.36.07.54.02.18.05.36.07.54.02.18.05.36.07.54.02.13.02.26.04.39,0,.02,0,.05,0,.07,0,.03.03.06.04.07.02.18.05.36.07.54.04.34.06.69.11,1.04.03.2.05.41.07.61.02.17.05.33.07.5.02.18.05.36.07.54.02.12.05.24.04.36-.09-.01-.17.02-.25.04-.36.06-.72.15-1.08.22-.16.03-.34.04-.5.07-.2.04-.42.11-.61.14-.15.03-.33.04-.5.07-.36.07-.72.14-1.08.22-.18.04-.36.07-.54.11-.18.04-.36.07-.54.11-.12.03-.4.02-.48.11-.11.23-.22.46-.34.68-.2.37-.35.76-.54,1.11-.18.35-.39.72-.57,1.08-.19.36-.36.73-.54,1.08-.18.35-.4.69-.57,1.08-.02.05-.1.09-.07.18h-.07c-.34-.24-.74-.39-1.11-.57-.37-.19-.72-.36-1.08-.54-.36-.18-.75-.36-1.11-.54-.34-.17-.69-.36-1.04-.54-.12-.06-.64-.39-.73-.39-.26.13-.53.26-.79.39-.05.03-.1.08-.13.1-.35.18-.7.37-1.04.54-.36.18-.72.36-1.08.54-.36.18-.72.33-1.08.5-.31.16-.66.3-.93.5h-.04c0-.07-.1-.13-.11-.14-.09-.19-.19-.39-.29-.57-.07-.13-.15-.27-.22-.39-.02-.05-.05-.1-.07-.14-.08-.16-.15-.35-.25-.54-.07-.13-.13-.31-.22-.43-.03-.03-.03-.05-.07-.07-.08-.19-.16-.39-.25-.57-.07-.15-.14-.31-.25-.43,0-.04-.02-.07-.04-.11-.06-.18-.2-.37-.29-.54-.07-.15-.14-.29-.22-.43-.02-.05-.05-.09-.07-.14-.09-.17-.19-.34-.29-.5-.07-.13.07-.13-.18-.22-.2-.07-.35-.07-.54-.11-.18-.04-.35-.08-.54-.11-.18-.03-.37-.09-.54-.11-.04,0-.07,0-.11,0-.13-.08-.28-.08-.43-.11-.18-.03-.36-.07-.54-.11-.18-.03-.38-.04-.54-.07-.16-.03-.39-.11-.57-.14-.16-.03-.34-.04-.5-.07-.35-.07-.68-.16-1.04-.22-.03,0-.07,0-.11,0-.02-.12.02-.24.04-.36.03-.22.07-.42.07-.65v-.04s0-.02,0-.04c0-.01,0-.02,0-.04.11-.46.16-.96.22-1.43.02-.17.02-.35.04-.5.02-.18.05-.36.07-.54,0,0,.03-.04.04-.07,0-.02,0-.05,0-.07.02-.13.02-.27.04-.39.02-.18.05-.36.07-.54.04-.36.12-.71.14-1.08,0-.06.05-.1.02-.18-.03-.09-.09-.1-.13-.14-.08-.1-.18-.17-.25-.25-.09-.1-.19-.22-.29-.32-.05-.06-.09-.12-.14-.18-.13-.14-.26-.29-.39-.43-.04-.04-.08-.07-.11-.11-.15-.16-.28-.34-.43-.5-.01-.01-.02-.02-.04-.04-.15-.16-.32-.4-.5-.5,0-.02-.03-.05-.04-.07-.45-.55-.95-1.06-1.43-1.58-.05-.05-.05-.16-.14-.14v-.07c.12-.04.23-.22.32-.32.09-.09.17-.19.25-.29.07-.08.15-.18.22-.25.1-.11.22-.21.32-.32.05-.06.09-.12.14-.18.81-.9,1.65-1.77,2.44-2.69.03-.03.05-.05.07-.07.04-.05.14-.07.14-.16-.02-.29-.11-.59-.14-.88-.02-.15-.02-.32-.04-.47-.03-.22-.08-.45-.11-.65-.02-.17-.02-.37-.04-.54-.03-.2-.08-.42-.11-.61-.02-.13-.02-.29-.04-.43-.02-.18-.05-.36-.07-.54-.05-.37-.1-.74-.14-1.11-.02-.16-.06-.36-.07-.5-.02-.23.06-.16.07-.18.18.02.37-.07.54-.11.14-.03.32-.01.47-.07.01,0,.03-.02.04-.04.01,0,.02,0,.04,0,.38-.03.72-.15,1.08-.22.16-.03.36-.04.54-.07.18-.03.36-.07.54-.11.18-.03.36-.07.54-.11.36-.07.72-.14,1.08-.22.19-.04.34-.04.54-.11.03-.01.09.01.12-.04.08-.1.11-.26.16-.36.19-.36.36-.73.54-1.08.18-.35.39-.72.57-1.08.19-.36.36-.69.54-1.04.19-.37.38-.74.57-1.11.09-.17.23-.34.25-.54h.07ZM21.91,10.08l-8.26,8.25-2.62-2.62-2.27,2.24-.04.07.02.05,4.84,4.85.07.04.05-.02,10.53-10.53-2.33-2.33h0Z"/>
  </g>
</svg>