<?xml version="1.0" encoding="utf-8"?>
<!-- Generator: Adobe Illustrator 28.0.0, SVG Export Plug-In . SVG Version: 6.00 Build 0)  -->
<svg version="1.1" id="Livello_1" xmlns="http://www.w3.org/2000/svg" xmlns:xlink="http://www.w3.org/1999/xlink" x="0px" y="0px"
	 viewBox="0 0 2500 2500" style="enable-background:new 0 0 2500 2500;" xml:space="preserve">
<style type="text/css">
	.st0{display:none;fill-rule:evenodd;clip-rule:evenodd;fill:#FFFFFF;}
	.st1{fill-rule:evenodd;clip-rule:evenodd;fill:#FFFFFF;}
</style>
<g>
	<path class="st0" d="M0,0h2500v2500H0V0z"/>
	<path class="st1" d="M82.5,1204.6c4.8-13,11.4-23.2,19.8-30.7c1.1-0.5,2.3-0.7,3.5-0.9c1.2-0.1,4.1-0.2,8.8-0.2
		c2.6,0,4.8,0.2,6.8,0.5c2,0.4,4,1.1,6.1,2.1c2.1,1.1,4.6,2.5,7.4,4.4l-35.7,28.4l8.4,6.7v94.6c-9.1-4.4-16.7-11.5-21.7-20.3
		c-7-12.1-10.5-28.4-10.5-48.7C75.3,1229.6,77.7,1217.6,82.5,1204.6L82.5,1204.6z M79.2,1168.4c2.1,0,4.8,0.4,8.1,1.1
		c3.3,0.7,6.3,1.4,9.1,2.1c-19.6,8.7-34.8,23-45.5,43.1c-9.3,17.7-14.1,37.4-14,57.5c0,25.7,8.9,47.7,26.8,66
		c17.9,18.3,39.7,27.5,65.3,27.5c24.7,0,45.7-9.5,62.7-28.4c17-18.9,25.6-41.2,25.6-66.9c-2.3,5.4-5,9.9-7.9,13.5
		c-3.7,4.4-7.9,8.5-12.4,12.1c-3.5,3-6.7,5.3-9.5,6.8c-2.8,1.5-6.4,3.2-10.9,5.1v-126.1c5.6-2.3,10.1-4.7,13.5-7.2
		c3.4-2.4,7.1-6,11.1-10.7c10.3-11.4,16-24.2,17.2-38.2c-7.5,4.9-14.2,8.5-20.2,10.9c-6,2.3-12.7,3.9-20.1,4.6
		c-1.2,0-2.8,0.1-4.9,0.3c-8.2,0-20.4-3.2-36.6-9.6c-16.2-6.4-29-9.6-38.4-9.6c-18.5,0-33.3,8.7-44.5,25.9
		c-10,15.4-15.1,33.7-15.1,55c1.4-6.5,4.8-12.7,10.2-18.6c4-4.4,8.6-8.2,13.7-11.2C67.5,1170,73.1,1168.4,79.2,1168.4L79.2,1168.4z
		 M249.8,1363.9l30.5-34l-15.4-16.1v-91.1l8.8-5.9l24.5,18.6v120.2c0,6.8-0.4,12.6-1.2,17.4c-0.7,4.5-2.6,8.8-5.4,12.4l-8.6,10.7
		c-3.9,4.8-8.7,8.6-14.5,11.4c11.7-1.2,21.3-3.8,28.7-7.9c7.5-4.1,15.2-10.6,23.1-19.4c5.8-6.6,10.2-13.1,13.1-19.6
		c3-6.7,4.9-13.8,5.8-21v-134.5l-10.5,0.7l-32.9-22.1l-23.8,19.6l-7.7-4.2v-66.6l-7-15.1l-31.2,30.5v172.7l-9.5,11.2L249.8,1363.9
		L249.8,1363.9z M354.2,1325.7l56.4,35.7l53.6-56.4l-29.1,20.7l-35.7-25.6v-23.8l63.8-47.7l-40.6-54.7l-64.8,45.2v98.8L354.2,1325.7
		L354.2,1325.7z M541.6,1149.5v65.5c-4.7,0.5-8.5,1.3-11.4,2.5c-2.9,1.2-6,3.2-9.3,6c-9.4,7.2-14,16.6-14,28
		c-0.1,3.6,0.4,7.1,1.4,10.5c3.3-2.8,6.5-4.7,9.6-5.6c3.2-0.9,7.1-1.4,11.8-1.4c2.3,0,4.2,0.3,5.6,0.7c1.4,0.5,3.5,1.4,6.3,2.8v64.4
		l48.4,48.7l44.5-45.2l53.6,45.2l78.1-75.7v-129.6l-48.4-37.1l-35.7,32.2l-48.7-32.2l-43.4,36.4v-21.4c0-7-5-14.9-15.1-23.8
		c-3-2.1-5.9-4.3-8.6-6.5s-4.3-5.4-4.7-9.5c-0.4-3.3-0.6-6.6-0.7-10c0-7.9,2.7-14.3,8.1-18.9c-2-0.4-4-0.6-6-0.7
		c-10.5,0-19.8,4.4-27.8,13.1c-8.1,8.8-12.1,18.5-12.1,29.3c0,1.6,0.2,3.9,0.7,6.7C525.8,1135.3,531.8,1143.9,541.6,1149.5
		L541.6,1149.5z M775.6,1327.4l43.4,30.5l31.5-29.8l37.5,26.3l32.2-34.7h-11.2l-14.4-14.7v-102.6l-7.7,1.4l-36.4-30.5l-69,47.6
		v100.5L775.6,1327.4L775.6,1327.4z M984.6,1180.1c-4.4-2.1-8.6-4.8-12.4-7.9l-57.1,40.3v68l5.3,4.2h34l-44.1,76.7
		c6.8-5.8,12-9.7,15.8-11.6c5.3-2.6,11.2-3.9,17.2-3.9c7.5,0,13.5,0.9,18.2,2.6c4.7,1.8,9.5,4.8,14.4,9.3l56-44.1v-69l-4.2-4.2H990
		v-3.5l33.3-58.5c-3.5,2.1-6.3,3.3-8.4,3.7c-3.4,0.4-6.8,0.6-10.2,0.5h-7.4C993,1182.8,988.6,1181.9,984.6,1180.1L984.6,1180.1z
		 M1073.4,1359l30.8-34.3l-15.4-16.1v-91.1l8.4-6l24.9,18.9v119.8c0.1,5.8-0.3,11.6-1.2,17.4c-0.8,4.5-2.7,8.7-5.8,12.4
		c-1.9,2.3-4.4,5.7-7.7,10.2c-4.2,4.9-9.3,8.9-15.1,11.9c10.7-0.9,20.3-3.5,28.6-7.8c8.3-4.3,16.1-10.7,23.3-19.1
		c5.4-6.3,9.6-12.9,12.6-19.8c3-6.9,5-14,6-21.2v-134.5l-10.2,1.1l-33.3-22.1l-23.8,19.3l-7.7-4.2v-66.2l-6.7-15.4l-31.5,30.5v173.1
		l-9.5,10.8L1073.4,1359L1073.4,1359z M1241.9,1151.9l-31.5-25.6l-25.6,28l26.6,24.2L1241.9,1151.9z M1192.5,1231.1v95.3l-6.7,10.2
		h11.9l27.3,23.1l28.7-26.3l36.8,29.8l32.2-35.7l-10.2-12.9v-89.3l8.4-4.2l18.6,20.3v87.6l32.6,28.4l31.5-35.7h-14.7l-8.4-13.7
		v-95.3l4.2-8.8l-8.4,1.8l-32.2-25.6l-31.5,32.6l-36.8-29.1l-30.5,34h11.9l10.2,11.9v87.6l-20.3,7l-13-10.2v-98.1l4.2-6l-36.4-27
		l-29.8,31.5l10.2,3.2L1192.5,1231.1L1192.5,1231.1z M1822.5,1323.2l-10.1-13v-89.3l8.4-4.2l18.6,20.3v87.9l32.6,28l31.5-35.7h-14.7
		l-8.4-13.7v-95.3l4.2-8.4l-8.4,1.4l-32.2-25.6l-31.5,32.6l-36.8-29.1l-30.5,34h11.9l10.2,11.9v87.9l-12.6,16.8l38.9,25.6
		L1822.5,1323.2L1822.5,1323.2z M1410.5,1323.9c4.7,0,8.9,0.6,12.8,1.8c3.9,1.2,7.6,3.2,11.4,6.1c3.7,2.9,6.5,5.7,8.2,8.4
		c1.8,2.7,3.2,6.4,4.4,11l-18.2,23.5l-19.3,25.9c4.9-2.8,9.1-4.5,12.6-5.1s8.6-0.9,15.4-0.9c7.9,0.7,14.7,2.6,20.3,5.6
		c5.6,3,10.7,7.6,15.4,13.7c11.2-4.2,24.2-13.6,39.1-28c14.9-14.5,22.3-26.4,22.3-35.7c0-1.6-1.7-6.7-5.1-15
		c-3.4-8.5-5.1-17.5-5.1-26.7v-108.9l-48.7-30.5l-61.3,43.4v103.7L1410.5,1323.9L1410.5,1323.9z M1531.3,1204.1h20.3v121.6l-4.9,9.5
		h11.9l25.6,19.6l32.9-37.5h-14.4l-9.5-10.2v-100.5l20.7-25.6h-20.7v-66.9l-41.7,38.9v26.6L1531.3,1204.1L1531.3,1204.1z
		 M1620,1323.9l43.4,30.8l75.7-52.9v-103l-7.7,1.8l-36.5-30.8l-69,47.6V1318L1620,1323.9L1620,1323.9z M1975.6,1150.2v32.6
		c-6.1,0-11.2,0.6-15.4,1.9c-4.2,1.3-8.2,3.8-12.1,7.5c-3.9,3.7-6.1,8.1-6.8,13c-0.7,4.9-1.1,11.3-1.1,19.3c0,3.3-0.1,5.5-0.4,6.7
		c5.1-8.2,12.3-11.6,21.4-10.2c6.1,0.9,10.9,3.5,14.4,7.7v54.3c-10.7,5.6-20.1,13-28,22.1c-8.9,10.5-14.9,21.3-17.9,32.6
		c4-3.1,8.2-5.9,12.6-8.2c3.5-1.8,8.4-3.5,14.7-5.4c2.3-0.7,5-1.5,8.1-2.3s6.5-1.2,10.5-1.2v104.7l45.9-37.5l15.4,11.2v-59.6
		l19.6,6.7l66.2-45.9V1146l-42.4-34l-43.4,36.4v-19.3l-8.4-7v30.8l-7,4.9v-32.2l-35.7-27.3l-42.4,41.7c3.5-2.1,7.1-3.2,10.8-3.2
		c3,0,6,0.5,8.8,1.4C1969.3,1140.6,1973.5,1144.6,1975.6,1150.2L1975.6,1150.2z M2128.7,1327.4l43.4,30.5l76-52.9v-102.6l-7.7,1.4
		l-36.8-30.5l-69,47.6v100.5L2128.7,1327.4L2128.7,1327.4z M2329.8,1178.5c-4.5-2.2-8.9-4.8-13-7.7l-56.8,39.9v68l4.9,4.2h34
		l-44.1,76.7c4.9-4.2,9-7.3,12.3-9.5c6.1-4,13.1-6,21-6c7.3,0,13.2,0.9,17.9,2.6c4.7,1.8,9.5,4.8,14.4,9.3l56.1-44.1v-69l-4.2-4.2
		h-37.5v-3.5l33.3-58.5c-3.5,2.1-6.3,3.3-8.4,3.7c-2.1,0.4-5.5,0.5-10.2,0.5h-7.3C2337.3,1181,2333.3,1180.2,2329.8,1178.5
		L2329.8,1178.5z M2377.4,1205.9h20.3v121.6l-4.9,9.5h11.9l25.2,19.6l33.3-37.5h-14.4l-9.5-10.2v-100.5l20.3-25.6h-20.3v-66.9
		l-41.7,38.9v26.6L2377.4,1205.9L2377.4,1205.9z M823.3,1209l27.3,20.3v81.6l-8.8,9.5l-18.6-16.1L823.3,1209L823.3,1209L823.3,1209z
		 M1501.5,1352.7c5.6,4,8.4,9,8.4,15.1c0,2.8-0.3,4.9-0.7,6.3c-1.4,2.1-2.5,3.5-3.2,4.2c-1.9,1.9-4.3,3.1-7,3.5c-3,0.5-7-1-11.9-4.4
		c-4.9-3.4-12.3-5.1-22.1-5.1c-6.3,0-12,0.6-17.2,1.8c-5.1,1.2-10.5,3.2-16.1,6l51.2-63.1v8.1c0,4.7,0.4,8.5,1.2,11.6
		c0.8,3,2.6,6,5.4,8.8C1493.6,1347.9,1497.6,1350.3,1501.5,1352.7L1501.5,1352.7z M1456.4,1204.8l26.6,19.6v79.2l-7.7,8.4
		l-18.9-18.9V1204.8L1456.4,1204.8z M399.4,1266.1V1215l25.6,32.2L399.4,1266.1z M999.5,1208.3l-23.8,42.4h-17.9v-45.9
		c7,4.4,14.6,6.7,22.8,6.7C987.1,1211.5,993.4,1210.4,999.5,1208.3L999.5,1208.3z M1667.6,1205.5l27.3,20.7v81.6l-8.7,9.5
		l-18.6-16.5L1667.6,1205.5L1667.6,1205.5z M964.5,1276.3H990v45.2c-3.6-1.3-7.3-2.3-11-3c-2.5-0.3-7.5-0.5-15.2-0.5
		c-4.5-0.1-8.9,0.4-13.3,1.4c-3.7,0.9-8.2,2.5-13.3,4.6L964.5,1276.3L964.5,1276.3z M2021.5,1181l7-6v200l-7-4.2V1181z
		 M2036.9,1169.8l21.4-13.7l15.4,11.2v131.7c-7.3-4.2-11.2-6.4-11.9-6.7l-7.7-2.5c-5.7-1.4-11.5-2.8-17.2-4.2L2036.9,1169.8
		L2036.9,1169.8L2036.9,1169.8z M165,1185.2c2.3,0,4.2-0.2,5.6-0.7V1312c-8.8,4.4-18.5,6.7-28.4,6.7c-5.8,0-11.7-0.7-17.5-2.1
		c-5.8-1.4-10.4-3.3-13.7-5.6L151,1271v-87.6c1.7,0.9,3.5,1.5,5.4,1.6c2,0.1,3.3,0.2,4,0.2L165,1185.2L165,1185.2z M2176.3,1209
		l27.3,20.3v81.6l-8.4,9.5l-18.9-16.1V1209L2176.3,1209z M590,1175.7l13-10.2l27,27.3v125.8l-10.9,11.2l-29.1-28L590,1175.7
		L590,1175.7z M2335.4,1209c3-0.5,6-1.3,8.7-2.5l-23.8,42.4h-17.9V1203c6.9,4.4,14.9,6.7,23.1,6.7
		C2329.1,1209.7,2332.3,1209.5,2335.4,1209L2335.4,1209z M2309.1,1274.5h25.6v45.2c-3.6-1.3-7.3-2.3-11-3c-2.5-0.4-7.5-0.5-15.3-0.5
		c-4.5-0.1-9,0.4-13.3,1.4c-4.4,1.2-8.8,2.7-13,4.6L2309.1,1274.5L2309.1,1274.5z M682.1,1175.7l12.6-10.2l27.3,27.3v125.8
		l-11.2,11.2l-28.7-28L682.1,1175.7L682.1,1175.7z"/>
</g>
</svg>
